<svg xmlns="http://www.w3.org/2000/svg" width="422.23" height="57.51" viewBox="0 0 422.23 57.51">
  <title>congrats</title>
  <g id="Layer_2" data-name="Layer 2">
    <g id="Layer_1-2" data-name="Layer 1">
      <g>
        <path d="M22.74,16.2A24.56,24.56,0,0,0,18.94,13a24,24,0,0,0-3.62-2A19,19,0,0,0,12.23,10a10,10,0,0,0-2.16-.33,20.53,20.53,0,0,0-1.58,7.75,18.19,18.19,0,0,0,1.58,7.52A18.8,18.8,0,0,0,14.5,31.1a21.39,21.39,0,0,0,6.82,4.2A24.29,24.29,0,0,0,30,36.9a24.94,24.94,0,0,1-6.41,4.22,15.51,15.51,0,0,1-6.08,1.25,16.13,16.13,0,0,1-6.87-1.49,17.29,17.29,0,0,1-5.57-4.08,19.56,19.56,0,0,1-3.74-6.08A20.35,20.35,0,0,1,0,23.21a20.36,20.36,0,0,1,1.37-7.52A19,19,0,0,1,5.13,9.63a17.42,17.42,0,0,1,5.59-4,16.45,16.45,0,0,1,6.92-1.46A16.16,16.16,0,0,1,25.09,5.9a19.93,19.93,0,0,1,6.29,5.2Z" fill="#fff"/>
        <path d="M59.83,29.43A12.89,12.89,0,0,1,52,41.4a12.77,12.77,0,0,1-5.11,1,12.6,12.6,0,0,1-5.08-1,13,13,0,0,1,0-24,12.59,12.59,0,0,1,5.08-1,12.85,12.85,0,0,1,9.21,3.81,13,13,0,0,1,3.74,9.19Zm-7,5.9a12.82,12.82,0,0,0-.93-4.85,16.26,16.26,0,0,0-2.53-4.25,18.13,18.13,0,0,0-3.71-3.41,20,20,0,0,0-4.52-2.34,13.94,13.94,0,0,0-.37,3.11,12.81,12.81,0,0,0,.93,4.85,16.17,16.17,0,0,0,2.51,4.22A17.64,17.64,0,0,0,47.95,36a20.42,20.42,0,0,0,4.55,2.34A13.78,13.78,0,0,0,52.87,35.32Z" fill="#fff"/>
        <path d="M81.6,41.82V28.13a5.15,5.15,0,0,0-.49-2.2,5.54,5.54,0,0,0-1.35-1.81,6.82,6.82,0,0,0-2-1.23,6.69,6.69,0,0,0-2.51-.46h0V36.67l3.95,5.15H62l3.9-5.15V23.72L63,20.89l8.49-5.06,2.74,4.55,7.52-4.5a10.87,10.87,0,0,1,3.74,1.51A12.27,12.27,0,0,1,88.42,20a11.61,11.61,0,0,1,1.88,3.3A10.72,10.72,0,0,1,91,27v9.65l3.95,5.15Z" fill="#fff"/>
        <path d="M120.77,24.18q.23.84.44,1.81a9.08,9.08,0,0,1,.21,1.9,10.69,10.69,0,0,1-1,4.53,11.71,11.71,0,0,1-2.55,3.6,12.3,12.3,0,0,1-3.74,2.44,12.71,12.71,0,0,1-4.5,1l-.88,1.21a20.34,20.34,0,0,1,5,1.3A12.93,12.93,0,0,1,117.22,44a8.08,8.08,0,0,1,2,2.58,6.45,6.45,0,0,1,.67,2.83,7,7,0,0,1-.7,3A7.44,7.44,0,0,1,117.17,55a10.59,10.59,0,0,1-3.43,1.79,15.53,15.53,0,0,1-4.8.67,21.91,21.91,0,0,1-5.57-.74A31,31,0,0,1,98,54.82l5.34-5.48,12.16,3.85a6.91,6.91,0,0,0-2.74-3.64,15.79,15.79,0,0,0-4.52-2.11,27.76,27.76,0,0,0-5.22-1q-2.69-.26-4.83-.26l6.36-7.66a11.51,11.51,0,0,1-3-1.65,11.64,11.64,0,0,1-2.37-2.41,11.09,11.09,0,0,1-2.11-6.57,10.68,10.68,0,0,1,1-4.71,11.32,11.32,0,0,1,2.74-3.62,12.26,12.26,0,0,1,4-2.32,13.79,13.79,0,0,1,4.71-.81,28,28,0,0,1,4,.3,25.19,25.19,0,0,1,4.11,1,21.38,21.38,0,0,1,3.85,1.67,14.06,14.06,0,0,1,3.27,2.51Zm-6.08,8.91a10.92,10.92,0,0,0-.91-4.43,13.85,13.85,0,0,0-2.41-3.74A17.08,17.08,0,0,0,107.91,22a19.2,19.2,0,0,0-4.08-2,6.11,6.11,0,0,0-.21,1.37q0,.67,0,1.37a10.92,10.92,0,0,0,.9,4.43,13.79,13.79,0,0,0,2.41,3.74,16.73,16.73,0,0,0,3.48,2.92,20.12,20.12,0,0,0,4.06,2,5.59,5.59,0,0,0,.21-1.35Q114.69,33.79,114.69,33.09Z" fill="#fff"/>
        <path d="M143.79,26.64a9.78,9.78,0,0,0-2.18-3.09,4.52,4.52,0,0,0-3.16-1.14V36.67l3.95,5.15H125.23l3.9-5.15V23.72l-2.83-2.83,8.49-5.06,2.74,4.55,7.57-4.5a8.9,8.9,0,0,1,4,2.23,13.46,13.46,0,0,1,2.67,3.81Z" fill="#fff"/>
        <path d="M172.76,43l-3.06-5.2L161,43a17.37,17.37,0,0,1-5.29-6.48,17.92,17.92,0,0,1-1.81-7.73,14.54,14.54,0,0,1,.77-4.71A10.69,10.69,0,0,1,157,20.17a11.63,11.63,0,0,1,4.06-2.72,15.07,15.07,0,0,1,5.8-1,22.48,22.48,0,0,1,5.94.81,23.9,23.9,0,0,1,5.57,2.3v15.6L181.25,38Zm-3.67-18.38-8.31-4a9.17,9.17,0,0,0-.6,3.2,9.61,9.61,0,0,0,.72,3.67,13.2,13.2,0,0,0,1.95,3.3,15.81,15.81,0,0,0,2.83,2.74,15.26,15.26,0,0,0,3.41,1.95Z" fill="#fff"/>
        <path d="M197.63,22.51V35l3,2.92L192,43a26.65,26.65,0,0,1-1.6-2.51,17.51,17.51,0,0,1-1.14-2.46,14.45,14.45,0,0,1-.7-2.62,18.19,18.19,0,0,1-.23-3V22.51h-5.15V18.15h5.15V14.9l-3-3,12.3-7.29V18.15h5.15v4.36Z" fill="#fff"/>
        <path d="M226.64,43.07l-2.74-4.59L216.38,43a10.86,10.86,0,0,1-3.74-1.51,12.2,12.2,0,0,1-2.9-2.58,11.49,11.49,0,0,1-1.88-3.32,10.88,10.88,0,0,1-.67-3.78V26.09l-3-3,12.3-7.33v15A5.15,5.15,0,0,0,217,33a5.53,5.53,0,0,0,1.35,1.81,6.41,6.41,0,0,0,2,1.21,7,7,0,0,0,2.51.44H223V26.09l-3-3,12.3-7.33v19.4L235.14,38Z" fill="#fff"/>
        <path d="M236.11,41.82l3.9-5.15V10.3l-3-3L249.34,0V36.67l3.95,5.15Z" fill="#fff"/>
        <path d="M274.26,43l-3.06-5.2L262.52,43a17.36,17.36,0,0,1-5.29-6.48,17.92,17.92,0,0,1-1.81-7.73,14.52,14.52,0,0,1,.77-4.71,10.68,10.68,0,0,1,2.37-3.95,11.62,11.62,0,0,1,4.06-2.72,15.07,15.07,0,0,1,5.8-1,22.48,22.48,0,0,1,5.94.81,23.91,23.91,0,0,1,5.57,2.3v15.6L282.76,38ZM270.6,24.65l-8.31-4a9.15,9.15,0,0,0-.6,3.2,9.61,9.61,0,0,0,.72,3.67,13.18,13.18,0,0,0,1.95,3.3,15.79,15.79,0,0,0,2.83,2.74,15.27,15.27,0,0,0,3.41,1.95Z" fill="#fff"/>
        <path d="M299.14,22.51V35l3,2.92L293.48,43a26.52,26.52,0,0,1-1.6-2.51,17.44,17.44,0,0,1-1.14-2.46,14.46,14.46,0,0,1-.7-2.62,18.26,18.26,0,0,1-.23-3V22.51h-5.15V18.15h5.15V14.9l-3-3,12.3-7.29V18.15h5.15v4.36Z" fill="#fff"/>
        <path d="M322.91,41.82H305.73l3.9-5.15V26l-3-3L319,15.69v21Zm-3.95-30h-9.33V4.69H319Z" fill="#fff"/>
        <path d="M350.89,29.43a12.89,12.89,0,0,1-7.84,12,12.76,12.76,0,0,1-5.11,1,12.6,12.6,0,0,1-5.08-1,13,13,0,0,1,0-24,12.59,12.59,0,0,1,5.08-1,12.85,12.85,0,0,1,9.21,3.81,13,13,0,0,1,3.74,9.19Zm-7,5.9a12.84,12.84,0,0,0-.93-4.85,16.27,16.27,0,0,0-2.53-4.25,18.11,18.11,0,0,0-3.71-3.41,20,20,0,0,0-4.53-2.34,13.94,13.94,0,0,0-.37,3.11,12.82,12.82,0,0,0,.93,4.85,16.19,16.19,0,0,0,2.51,4.22A17.65,17.65,0,0,0,339,36a20.44,20.44,0,0,0,4.55,2.34A13.78,13.78,0,0,0,343.93,35.32Z" fill="#fff"/>
        <path d="M372.66,41.82V28.13a5.15,5.15,0,0,0-.49-2.2,5.54,5.54,0,0,0-1.35-1.81,6.81,6.81,0,0,0-2-1.23,6.69,6.69,0,0,0-2.51-.46h0V36.67l3.94,5.15H353l3.9-5.15V23.72l-2.83-2.83,8.49-5.06,2.74,4.55,7.52-4.5a10.87,10.87,0,0,1,3.74,1.51,12.27,12.27,0,0,1,2.9,2.58,11.6,11.6,0,0,1,1.88,3.3A10.7,10.7,0,0,1,382,27v9.65L386,41.82Z" fill="#fff"/>
        <path d="M409.61,34.86a6.52,6.52,0,0,1-1,3.76,8.13,8.13,0,0,1-2.62,2.46,11.42,11.42,0,0,1-3.41,1.32,16.34,16.34,0,0,1-3.41.39,31.45,31.45,0,0,1-6.52-.67,16.62,16.62,0,0,1-6.1-2.72L392,35.14l12.21,4a4,4,0,0,0-1.48-2.44,18.47,18.47,0,0,0-2.95-2q-1.69-.93-3.6-1.86a26,26,0,0,1-3.53-2.06,11.34,11.34,0,0,1-2.69-2.6,5.7,5.7,0,0,1-1.07-3.46,7.71,7.71,0,0,1,1-3.92,8.13,8.13,0,0,1,2.48-2.69,10.74,10.74,0,0,1,3.48-1.53,16.39,16.39,0,0,1,4-.49,18.64,18.64,0,0,1,5.08.74,13.19,13.19,0,0,1,4.66,2.37l-5.71,4.46-10.49-3.44a4.09,4.09,0,0,0,1.62,2.44,20.11,20.11,0,0,0,3.16,2q1.81.93,3.83,1.86a26.34,26.34,0,0,1,3.74,2.09,11.65,11.65,0,0,1,2.83,2.65A5.79,5.79,0,0,1,409.61,34.86Z" fill="#fff"/>
        <path d="M422.23,27H412.9V4.69h9.33Zm0,14.81H412.9v-9h9.33Z" fill="#fff"/>
      </g>
    </g>
  </g>
</svg>
