<svg xmlns="http://www.w3.org/2000/svg" width="609.69" height="58.66" viewBox="0 0 609.69 58.66">
  <title>killpet</title>
  <g id="Layer_2" data-name="Layer 2">
    <g id="Layer_1-2" data-name="Layer 1">
      <g>
        <path d="M22.53,25.63V36.55l3.93,5.13H9.35l3.89-5.13V26.88L3.79,11.43,0,8,8.93,2.59,20.08,20.91,26.69,9.76,22.81,4.67H35Z" fill="#fff"/>
        <path d="M62.45,29.33a12.85,12.85,0,0,1-1,5,13,13,0,0,1-2.73,4.12,12.8,12.8,0,0,1-9.18,3.79,12.55,12.55,0,0,1-5.07-1,13,13,0,0,1,0-23.87,12.55,12.55,0,0,1,5.07-1,12.81,12.81,0,0,1,9.18,3.79,13,13,0,0,1,2.73,4.12A12.84,12.84,0,0,1,62.45,29.33Zm-6.94,5.88a12.8,12.8,0,0,0-.92-4.83,16.19,16.19,0,0,0-2.52-4.23,18,18,0,0,0-3.7-3.4,19.92,19.92,0,0,0-4.51-2.34,13.9,13.9,0,0,0-.37,3.1,12.77,12.77,0,0,0,.93,4.83,16.13,16.13,0,0,0,2.5,4.21,17.59,17.59,0,0,0,3.7,3.38,20.3,20.3,0,0,0,4.53,2.34A13.7,13.7,0,0,0,55.51,35.21Z" fill="#fff"/>
        <path d="M86.93,42.93,84.2,38.35l-7.5,4.53A10.83,10.83,0,0,1,73,41.38a12.16,12.16,0,0,1-2.89-2.57,11.46,11.46,0,0,1-1.87-3.31,10.86,10.86,0,0,1-.67-3.77V26l-3-3,12.26-7.31V30.67a5.13,5.13,0,0,0,.49,2.2,5.5,5.5,0,0,0,1.34,1.8,6.41,6.41,0,0,0,2,1.2,7,7,0,0,0,2.5.44h.09V26l-3-3,12.26-7.31V35.07l2.82,2.82Z" fill="#fff"/>
        <path d="M97.75,41.68v-9h9.3v9Z" fill="#fff"/>
        <path d="M110.34,41.68v-9h9.3v9Z" fill="#fff"/>
        <path d="M122.92,41.68v-9h9.3v9Z" fill="#fff"/>
        <path d="M157.94,9.81V31.88a10,10,0,0,1-.9,4.23,10.56,10.56,0,0,1-2.5,3.42,11.76,11.76,0,0,1-3.77,2.29,13.21,13.21,0,0,1-4.77.83,19.9,19.9,0,0,1-3.4-.28,15.52,15.52,0,0,1-3.1-.88,23.3,23.3,0,0,1-3.05-1.5,37.77,37.77,0,0,1-3.26-2.15l8.47-5.13,7,5V9.81l-3.89-5.14h17.12Z" fill="#fff"/>
        <path d="M185.19,42.93l-2.73-4.58L175,42.89a10.83,10.83,0,0,1-3.72-1.5,12.16,12.16,0,0,1-2.89-2.57,11.46,11.46,0,0,1-1.87-3.31,10.86,10.86,0,0,1-.67-3.77V26l-3-3,12.26-7.31V30.67a5.13,5.13,0,0,0,.49,2.2,5.5,5.5,0,0,0,1.34,1.8,6.41,6.41,0,0,0,2,1.2,7,7,0,0,0,2.5.44h.09V26l-3-3,12.26-7.31V35.07l2.82,2.82Z" fill="#fff"/>
        <path d="M217.66,34.74a6.49,6.49,0,0,1-1,3.75A8.1,8.1,0,0,1,214,40.94a11.39,11.39,0,0,1-3.4,1.32,16.27,16.27,0,0,1-3.4.39,31.36,31.36,0,0,1-6.5-.67,16.57,16.57,0,0,1-6.08-2.71L200.08,35l12.17,4a4,4,0,0,0-1.48-2.43,18.4,18.4,0,0,0-2.94-2q-1.69-.92-3.59-1.85a25.85,25.85,0,0,1-3.52-2.06A11.28,11.28,0,0,1,198,28.15,5.68,5.68,0,0,1,197,24.7a7.68,7.68,0,0,1,.95-3.91,8.11,8.11,0,0,1,2.47-2.68,10.73,10.73,0,0,1,3.47-1.53,16.32,16.32,0,0,1,4-.49,18.58,18.58,0,0,1,5.07.74,13.14,13.14,0,0,1,4.65,2.36l-5.69,4.44-10.46-3.42A4.08,4.08,0,0,0,203,22.65a20,20,0,0,0,3.15,2q1.8.93,3.82,1.85a26.25,26.25,0,0,1,3.72,2.08,11.62,11.62,0,0,1,2.82,2.64A5.77,5.77,0,0,1,217.66,34.74Z" fill="#fff"/>
        <path d="M234.92,22.44v12.4l3,2.91-8.6,5.14a26.74,26.74,0,0,1-1.6-2.5,17.46,17.46,0,0,1-1.13-2.45,14.47,14.47,0,0,1-.69-2.61,18.19,18.19,0,0,1-.23-3V22.44h-5.13V18.09h5.13V14.85l-3-3,12.26-7.26V18.09h5.14v4.35Z" fill="#fff"/>
        <path d="M274.8,42.89l-9.9-11.66v5.32l3.93,5.13H251.71l3.89-5.13V10.27l-3-3L264.9,0V29.52l7.31-6.66-4-4.76h14.9l-10.27,9.25,5.74,6.8,5,3.47Z" fill="#fff"/>
        <path d="M300.75,41.68H283.63l3.89-5.13V25.91l-3-3,12.26-7.26V36.55Zm-3.93-29.93h-9.3V4.67h9.3Z" fill="#fff"/>
        <path d="M301.26,41.68l3.89-5.13V10.27l-3-3L314.45,0V36.55l3.93,5.13Z" fill="#fff"/>
        <path d="M318.88,41.68l3.89-5.13V10.27l-3-3L332.07,0V36.55L336,41.68Z" fill="#fff"/>
        <path d="M349.83,34a19.86,19.86,0,0,0,9.9,5,14.35,14.35,0,0,1-4.07,2.47,13.14,13.14,0,0,1-9.74-.16,13,13,0,0,1,0-23.87,12.55,12.55,0,0,1,5.07-1,11.08,11.08,0,0,1,4.09.86,12.77,12.77,0,0,1,4,2.52,13.18,13.18,0,0,1,3,4.12,13,13,0,0,1,1.16,5.6Zm4.49-3.79a9,9,0,0,0-1.23-5,10.17,10.17,0,0,0-2.8-3,10.4,10.4,0,0,0-3-1.46q-1.41-.39-1.83-.49a15.43,15.43,0,0,0-.37,3.15v1.6a5.59,5.59,0,0,0,.23,1.6Z" fill="#fff"/>
        <path d="M384.95,42.89l-3.05-5.18-8.65,5.18A17.74,17.74,0,0,1,368,36.46a17.11,17.11,0,0,1-1.76-7.4A15,15,0,0,1,367,24.2a11,11,0,0,1,2.45-4.07,11.88,11.88,0,0,1,4.23-2.8,16.28,16.28,0,0,1,6.13-1l.74,0,.74,0V10.27l-3-3L390.59,0V35l2.82,2.82Zm-3.66-18.41-8.28-4a9.26,9.26,0,0,0-.6,3.24,9.58,9.58,0,0,0,.72,3.65,13.11,13.11,0,0,0,1.94,3.29,15.77,15.77,0,0,0,2.82,2.73,16.8,16.8,0,0,0,3.4,2Z" fill="#fff"/>
        <path d="M418.53,50.43l4.3,5.09H411.41l4.81-10.78-8.51-19.11-3.56-3.05L413,15.73l8,17.95,4.63-10.5-4.3-5.09h11.38Z" fill="#fff"/>
        <path d="M460.22,29.33a12.85,12.85,0,0,1-1,5,13,13,0,0,1-2.73,4.12,12.8,12.8,0,0,1-9.18,3.79,12.55,12.55,0,0,1-5.07-1,13,13,0,0,1,0-23.87,12.55,12.55,0,0,1,5.07-1,12.81,12.81,0,0,1,9.18,3.79,13,13,0,0,1,2.73,4.12A12.84,12.84,0,0,1,460.22,29.33Zm-6.94,5.88a12.8,12.8,0,0,0-.92-4.83,16.19,16.19,0,0,0-2.52-4.23,18,18,0,0,0-3.7-3.4,19.92,19.92,0,0,0-4.51-2.34,13.9,13.9,0,0,0-.37,3.1,12.77,12.77,0,0,0,.93,4.83,16.13,16.13,0,0,0,2.5,4.21,17.59,17.59,0,0,0,3.7,3.38,20.3,20.3,0,0,0,4.53,2.34A13.7,13.7,0,0,0,453.28,35.21Z" fill="#fff"/>
        <path d="M484.69,42.93,482,38.35l-7.5,4.53a10.83,10.83,0,0,1-3.72-1.5,12.16,12.16,0,0,1-2.89-2.57A11.46,11.46,0,0,1,466,35.51a10.86,10.86,0,0,1-.67-3.77V26l-3-3,12.26-7.31V30.67a5.13,5.13,0,0,0,.49,2.2,5.5,5.5,0,0,0,1.34,1.8,6.41,6.41,0,0,0,2,1.2,7,7,0,0,0,2.5.44H481V26l-3-3,12.26-7.31V35.07l2.82,2.82Z" fill="#fff"/>
        <path d="M512.63,26.55a9.75,9.75,0,0,0-2.17-3.08,4.5,4.5,0,0,0-3.15-1.13v14.2l3.93,5.13H494.13L498,36.55V23.64l-2.82-2.82,8.47-5,2.73,4.53,7.54-4.49a8.88,8.88,0,0,1,4,2.22,13.39,13.39,0,0,1,2.66,3.79Z" fill="#fff"/>
        <path d="M559,29.61a15,15,0,0,1-.79,4.86,11.15,11.15,0,0,1-2.43,4.07,11.65,11.65,0,0,1-4.21,2.8,16.3,16.3,0,0,1-6.13,1,6.08,6.08,0,0,1-.74,0,5.88,5.88,0,0,0-.74,0v6.11l3,3-12.26,7.26v-35l-2.87-2.82,8.47-5.09,3.1,5.18,8.6-5.18a18.21,18.21,0,0,1,5.27,6.45A17,17,0,0,1,559,29.61ZM552.79,35a9.58,9.58,0,0,0-.72-3.66,12.82,12.82,0,0,0-1.94-3.26,16.25,16.25,0,0,0-2.82-2.71,17.39,17.39,0,0,0-3.35-2V34.19l8.28,4A10.21,10.21,0,0,0,552.79,35Z" fill="#fff"/>
        <path d="M574.44,34a19.86,19.86,0,0,0,9.9,5,14.35,14.35,0,0,1-4.07,2.47,13.14,13.14,0,0,1-9.74-.16,13,13,0,0,1,0-23.87,12.55,12.55,0,0,1,5.07-1,11.08,11.08,0,0,1,4.09.86,12.77,12.77,0,0,1,4,2.52,13.18,13.18,0,0,1,3,4.12,13,13,0,0,1,1.16,5.6Zm4.49-3.79a9,9,0,0,0-1.23-5,10.17,10.17,0,0,0-2.8-3,10.4,10.4,0,0,0-3-1.46q-1.41-.39-1.83-.49a15.43,15.43,0,0,0-.37,3.15v1.6a5.59,5.59,0,0,0,.23,1.6Z" fill="#fff"/>
        <path d="M604.55,22.44v12.4l3,2.91-8.6,5.14a26.74,26.74,0,0,1-1.6-2.5,17.46,17.46,0,0,1-1.13-2.45,14.47,14.47,0,0,1-.69-2.61,18.19,18.19,0,0,1-.23-3V22.44h-5.13V18.09h5.13V14.85l-3-3,12.26-7.26V18.09h5.14v4.35Z" fill="#fff"/>
      </g>
    </g>
  </g>
</svg>
