<?xml version="1.0" encoding="utf-8"?>
<!-- Generator: Adobe Illustrator 21.1.0, SVG Export Plug-In . SVG Version: 6.00 Build 0)  -->
<svg version="1.1" id="Layer_1" xmlns="http://www.w3.org/2000/svg" xmlns:xlink="http://www.w3.org/1999/xlink" x="0px" y="0px"
	 viewBox="0 0 889.3 88.8" style="enable-background:new 0 0 889.3 88.8;" xml:space="preserve">
<style type="text/css">
	.st0{fill:#FFFFFF;}
</style>
<title>Pet Combat</title>
<g id="Layer_2">
	<g id="Layer_1-2">
		<g>
			<path class="st0" d="M47,24.1c0,1.9-0.4,3.9-1.3,5.6c-0.9,1.9-2.2,3.5-3.7,4.9c-1.9,1.6-4.1,2.9-6.4,3.8c-2.9,1.1-6,1.9-9.1,2.3
				l-6.5,0.9v13.8l6,7.8H0l5.9-7.8V14.8L0,7.1h26.2c2.9,0,5.8,0.4,8.6,1.4c2.4,0.9,4.6,2.2,6.6,3.8c1.8,1.5,3.2,3.4,4.2,5.5
				C46.5,19.7,47,21.9,47,24.1z M33.4,29.5c0-1.8-0.3-3.6-1-5.2c-1.4-3.4-3.9-6.3-7.1-8.2c-1.6-1-3.4-1.6-5.2-1.9v16.8l11.7,4.8
				C32.8,34,33.4,31.8,33.4,29.5z"/>
			<path class="st0" d="M70.1,51.5c4.2,3.9,9.4,6.5,15,7.5c-1.8,1.6-3.9,2.9-6.2,3.8c-4.8,1.8-10,1.7-14.7-0.2
				c-10-4.3-14.6-15.9-10.3-25.9c2-4.6,5.7-8.3,10.3-10.3c2.4-1,5-1.6,7.7-1.5c2.1,0,4.2,0.5,6.2,1.3c2.2,0.9,4.3,2.2,6,3.8
				c1.9,1.8,3.4,3.9,4.5,6.2c1.2,2.7,1.8,5.6,1.8,8.5L70.1,51.5z M76.9,45.7c0.1-2.6-0.5-5.2-1.9-7.5c-1.1-1.8-2.5-3.3-4.2-4.5
				c-1.4-1-2.9-1.7-4.5-2.2c-1.4-0.4-2.4-0.6-2.8-0.7c-0.3,1.6-0.5,3.2-0.6,4.8V38c0,0.8,0.1,1.6,0.3,2.4L76.9,45.7z"/>
			<path class="st0" d="M117.7,34v18.7l4.5,4.4l-13,7.8c-0.9-1.2-1.7-2.5-2.4-3.8c-0.7-1.2-1.3-2.4-1.7-3.7c-0.5-1.3-0.8-2.6-1.1-4
				c-0.2-1.5-0.4-3-0.3-4.6V34h-7.8v-6.6h7.8v-4.9l-4.5-4.5l18.6-11v20.4h7.8V34H117.7z"/>
			<path class="st0" d="M183.9,24.4c-1.7-1.8-3.7-3.4-5.7-4.8c-1.7-1.2-3.6-2.2-5.5-3c-1.5-0.7-3.1-1.2-4.7-1.6
				c-1.1-0.3-2.2-0.4-3.2-0.5c-1.5,3.7-2.4,7.7-2.4,11.7c0,3.9,0.8,7.8,2.4,11.3c1.6,3.5,3.8,6.7,6.7,9.3c3,2.7,6.5,4.9,10.3,6.3
				c4.2,1.6,8.6,2.4,13.1,2.4c-2.9,2.6-6.1,4.7-9.6,6.3c-2.9,1.3-6,1.9-9.2,1.9c-3.6,0-7.1-0.7-10.4-2.2c-3.2-1.5-6-3.6-8.4-6.2
				c-2.4-2.7-4.3-5.8-5.6-9.2c-1.4-3.6-2.1-7.5-2-11.3c0-3.9,0.7-7.7,2.1-11.3c1.3-3.4,3.2-6.5,5.7-9.1c2.4-2.6,5.2-4.6,8.4-6.1
				c3.3-1.5,6.8-2.2,10.4-2.2c3.9,0,7.8,0.9,11.2,2.7c3.7,1.9,6.9,4.6,9.5,7.8L183.9,24.4z"/>
			<path class="st0" d="M239.1,44.4c0.1,7.9-4.6,15-11.8,18.1c-2.4,1-5.1,1.6-7.7,1.5c-2.6,0-5.2-0.5-7.7-1.5
				c-10-4.3-14.6-15.9-10.3-25.9c2-4.6,5.7-8.3,10.3-10.3c2.4-1,5-1.6,7.7-1.5c5.2,0,10.2,2,13.9,5.7
				C237.1,34.2,239.1,39.2,239.1,44.4z M228.6,53.3c0-2.5-0.5-5-1.4-7.3c-0.9-2.3-2.2-4.5-3.8-6.4c-1.6-2-3.5-3.7-5.6-5.2
				c-2.1-1.5-4.4-2.6-6.8-3.5c-0.4,1.5-0.6,3.1-0.6,4.7c0,2.5,0.5,5,1.4,7.3c0.9,2.3,2.2,4.5,3.8,6.4c1.6,2,3.5,3.7,5.6,5.1
				c2.1,1.5,4.4,2.7,6.9,3.5C228.4,56.4,228.6,54.8,228.6,53.3z"/>
			<path class="st0" d="M295.7,63.1V42.4c0-1.1-0.2-2.3-0.6-3.3c-0.4-1-1-1.9-1.7-2.7c-0.8-0.8-1.7-1.4-2.7-1.8
				c-1.1-0.5-2.3-0.7-3.6-0.7v21.5l6,7.8h-20.1V42.4c0-1.1-0.2-2.3-0.6-3.3c-0.4-1-1-1.9-1.7-2.7c-0.8-0.8-1.7-1.4-2.7-1.8
				c-1.1-0.5-2.3-0.7-3.6-0.7v21.5l6,7.8h-25.9l5.9-7.8V35.8l-4.3-4.3l12.8-7.6l4.1,6.9l11.4-6.8c2.2,0.6,4.2,1.6,5.9,2.9
				c1.7,1.3,3.1,2.9,4.2,4.7l12.7-7.6c1.9,0.5,3.6,1.3,5.2,2.5c1.5,1.1,2.9,2.4,4,3.9c1.1,1.5,2,3.2,2.6,4.9
				c0.6,1.8,0.9,3.6,0.9,5.5v14.6l6,7.8H295.7z"/>
			<path class="st0" d="M360.4,44.8c0,2.5-0.4,5-1.2,7.3c-0.8,2.3-2,4.4-3.7,6.2c-1.8,1.9-4,3.3-6.4,4.2c-3,1.1-6.1,1.7-9.3,1.6
				c-0.4,0-0.7,0-1.1-0.1c-0.4,0-0.7-0.1-1.1-0.1v9.2l4.5,4.6l-18.5,11V35.8l-4.3-4.3l12.8-7.7l4.7,7.8l13-7.8
				c3.4,2.6,6.1,5.9,8,9.8C359.5,37.1,360.4,40.9,360.4,44.8z M351,52.9c0-1.9-0.3-3.8-1-5.5c-0.7-1.8-1.8-3.4-3-4.9
				c-1.3-1.5-2.7-2.9-4.3-4.1c-1.6-1.2-3.3-2.2-5.1-3v16.4l12.5,6.1C350.7,56.2,351,54.6,351,52.9z"/>
			<path class="st0" d="M396.5,64.9l-4.6-7.8l-13.1,7.8c-3.4-2.6-6.2-5.9-8-9.8c-1.8-3.6-2.7-7.6-2.7-11.6c0-2.4,0.4-4.8,1.1-7.1
				c0.7-2.2,2-4.3,3.6-6c1.7-1.8,3.9-3.1,6.2-4c2.8-1.1,5.8-1.6,8.8-1.5c3,0,6.1,0.4,9,1.2c2.9,0.8,5.8,2,8.4,3.5V53l4.3,4.3
				L396.5,64.9z M391,37.2l-12.5-6.1c-0.6,1.5-0.9,3.2-0.9,4.8c0,1.9,0.4,3.8,1.1,5.5c0.7,1.8,1.7,3.5,2.9,5
				c1.2,1.5,2.7,2.9,4.3,4.1c1.6,1.2,3.3,2.2,5.2,2.9V37.2z"/>
			<path class="st0" d="M436.1,34v18.7l4.5,4.4l-13,7.8c-0.9-1.2-1.7-2.5-2.4-3.8c-0.7-1.2-1.2-2.4-1.7-3.7c-0.5-1.3-0.8-2.6-1-4
				c-0.2-1.5-0.4-3-0.4-4.6V34h-7.8v-6.6h7.7v-4.9l-4.5-4.5l18.5-11v20.4h7.8V34H436.1z"/>
			<path class="st0" d="M478.9,64.9l-4.6-7.8l-13.1,7.8c-3.4-2.6-6.2-5.9-8-9.8c-1.8-3.6-2.7-7.6-2.7-11.6c0-2.4,0.4-4.8,1.2-7.1
				c0.7-2.2,2-4.3,3.6-6c1.7-1.8,3.8-3.2,6.1-4.1c2.8-1.1,5.8-1.6,8.8-1.5c3,0,6.1,0.4,9,1.2c2.9,0.8,5.8,2,8.4,3.5V53l4.3,4.3
				L478.9,64.9z M473.4,37.2l-12.5-6.1c-0.6,1.5-0.9,3.2-0.9,4.8c0,1.9,0.3,3.8,1,5.5c0.7,1.8,1.7,3.5,2.9,5
				c1.2,1.5,2.7,2.9,4.3,4.1c1.6,1.2,3.3,2.2,5.1,2.9L473.4,37.2z"/>
			<path class="st0" d="M538.8,44.7c0,2.5-0.4,4.9-1.2,7.3c-0.8,2.3-2,4.4-3.7,6.2c-1.8,1.9-4,3.3-6.4,4.3c-2.9,1.1-6.1,1.7-9.2,1.6
				c-2.2,0-4.3-0.2-6.4-0.6c-2.1-0.4-4.2-1-6.2-1.8c-1.9-0.7-3.7-1.6-5.4-2.7c-1.6-1-3-2.1-4.3-3.4l6-3.6V15.5l-4.5-4.5L516,0v31
				l12.1-7.3c1.7,1.3,3.3,2.8,4.7,4.5c1.3,1.6,2.4,3.4,3.3,5.2c0.9,1.8,1.5,3.6,2,5.6C538.5,40.9,538.8,42.8,538.8,44.7z
				 M529.4,52.8c0-1.9-0.4-3.8-1.1-5.5c-0.7-1.8-1.7-3.5-2.9-5c-1.2-1.5-2.7-2.9-4.3-4.1c-1.6-1.2-3.3-2.2-5.1-3v16.4l12.5,6.1
				C529.1,56.1,529.4,54.4,529.4,52.8z"/>
			<path class="st0" d="M569.9,63.1H544l5.9-7.8V39.2l-4.5-4.5l18.5-11v31.6L569.9,63.1z M563.9,17.8h-14V7.1H564L563.9,17.8z"/>
			<path class="st0" d="M572.7,63.1l5.9-7.8V15.5l-4.5-4.5L592.7,0v55.3l6,7.8H572.7z"/>
			<path class="st0" d="M627.3,63.1h-25.9l5.9-7.8V39.2l-4.5-4.5l18.5-11v31.6L627.3,63.1z M621.3,17.8h-14V7.1h14.1L621.3,17.8z"/>
			<path class="st0" d="M653.4,34v18.7l4.5,4.4l-13,7.8c-0.9-1.2-1.7-2.5-2.4-3.8c-0.7-1.2-1.2-2.4-1.7-3.7c-0.5-1.3-0.8-2.6-1-4
				c-0.2-1.5-0.4-3-0.3-4.6V34h-7.8v-6.6h7.8v-4.9l-4.5-4.5l18.5-11v20.4h7.8V34H653.4z"/>
			<path class="st0" d="M686.4,76.3l6.5,7.7h-17.3l7.3-16.3L670,38.8l-5.4-4.6l13.5-10.4L690.3,51l7-15.9l-6.5-7.7H708L686.4,76.3z"
				/>
			<path class="st0" d="M759.1,12v43.3l6,7.8h-25.9l5.9-7.8V12L729,20.7V7.1h46.3v13.6L759.1,12z"/>
			<path class="st0" d="M794.1,51.5c4.2,3.9,9.4,6.5,15,7.5c-1.8,1.6-3.9,2.9-6.1,3.7c-4.8,1.8-10,1.7-14.7-0.2
				c-10-4.3-14.6-15.9-10.3-25.9c2-4.6,5.7-8.3,10.3-10.3c2.4-1,5-1.6,7.7-1.5c2.1,0,4.2,0.5,6.2,1.3c2.2,0.9,4.3,2.2,6,3.8
				c1.9,1.8,3.4,3.9,4.5,6.2c1.2,2.7,1.8,5.6,1.8,8.5L794.1,51.5z M800.9,45.7c0.1-2.6-0.5-5.2-1.8-7.5c-1.1-1.8-2.5-3.3-4.2-4.5
				c-1.4-1-2.9-1.7-4.5-2.2c-1.4-0.4-2.3-0.6-2.8-0.7c-0.4,1.6-0.5,3.2-0.6,4.8V38c0,0.8,0.1,1.6,0.3,2.4L800.9,45.7z"/>
			<path class="st0" d="M853.4,52.6c0.1,2-0.5,4-1.6,5.7c-1,1.5-2.4,2.8-4,3.7c-1.6,0.9-3.3,1.6-5.2,2c-1.7,0.4-3.4,0.6-5.1,0.6
				c-3.3,0-6.6-0.3-9.8-1c-3.3-0.7-6.4-2.1-9.2-4.1l8.3-6.4l18.4,6.1c-0.3-1.5-1.1-2.8-2.2-3.7c-1.4-1.1-2.9-2.1-4.5-3
				c-1.7-0.9-3.5-1.9-5.4-2.8c-1.9-0.9-3.6-1.9-5.3-3.1c-1.6-1.1-2.9-2.4-4.1-3.9c-1.1-1.5-1.7-3.4-1.6-5.2
				c-0.1-2.1,0.4-4.1,1.4-5.9c0.9-1.6,2.2-3,3.8-4.1c1.6-1.1,3.4-1.9,5.2-2.3c2-0.5,4-0.7,6-0.7c2.6,0,5.2,0.4,7.7,1.1
				c2.5,0.7,4.9,1.9,7,3.6l-8.6,6.7l-15.8-5.2c0.3,1.5,1.2,2.8,2.5,3.7c1.5,1.1,3.1,2.1,4.8,3c1.8,0.9,3.7,1.9,5.8,2.8
				c2,0.9,3.8,1.9,5.6,3.2c1.6,1.1,3.1,2.4,4.3,4C852.8,48.7,853.4,50.6,853.4,52.6z"/>
			<path class="st0" d="M881.5,34v18.7l4.5,4.4l-13,7.8c-0.9-1.2-1.7-2.5-2.4-3.8c-0.7-1.2-1.2-2.4-1.7-3.7c-0.5-1.3-0.8-2.6-1-4
				c-0.2-1.5-0.4-3-0.3-4.6V34h-7.8v-6.6h7.8v-4.9l-4.5-4.5l18.5-11v20.4h7.8V34H881.5z"/>
		</g>
	</g>
</g>
</svg>
