<svg xmlns="http://www.w3.org/2000/svg" width="424.09" height="55.29" viewBox="0 0 424.09 55.29">
  <title>say_yes</title>
  <g id="Layer_2" data-name="Layer 2">
    <g id="Layer_1-2" data-name="Layer 1">
      <g>
        <path d="M0,9.81A9.91,9.91,0,0,1,.6,6.4,8.49,8.49,0,0,1,5.17,1.48,9.14,9.14,0,0,1,9,.72a9.89,9.89,0,0,1,3.08.46,7.69,7.69,0,0,1,2.46,1.3,7.46,7.46,0,0,1,1.74,2,7.74,7.74,0,0,1,1,2.5H15.49a5.88,5.88,0,0,0-.76-1.84,5.81,5.81,0,0,0-1.36-1.5,6.49,6.49,0,0,0-1.89-1,7.41,7.41,0,0,0-2.43-.37,7.49,7.49,0,0,0-3.12.62A6.87,6.87,0,0,0,3.61,4.54,7.22,7.22,0,0,0,2.19,7,8.44,8.44,0,0,0,1.7,9.81a8.11,8.11,0,0,0,.53,2.92,7.36,7.36,0,0,0,1.49,2.41A7.15,7.15,0,0,0,6.05,16.8a7.46,7.46,0,0,0,3.09.62,7.59,7.59,0,0,0,2.24-.31,6.32,6.32,0,0,0,1.8-.87A6.46,6.46,0,0,0,14.53,15a5.54,5.54,0,0,0,.87-1.54h1.84a7.32,7.32,0,0,1-1.07,2.17,7.62,7.62,0,0,1-1.77,1.75A8.51,8.51,0,0,1,12,18.54,9.69,9.69,0,0,1,9.05,19a9.21,9.21,0,0,1-3.76-.74,8.59,8.59,0,0,1-2.84-2A8.9,8.9,0,0,1,.64,13.33,9.69,9.69,0,0,1,0,9.81Zm20.38,8.78V1.09H22v17.5ZM25.75,3.19A1.45,1.45,0,0,1,27.23,1.7a1.47,1.47,0,0,1,1.07.42,1.44,1.44,0,0,1,.43,1.07,1.43,1.43,0,0,1-.43,1,1.46,1.46,0,0,1-1.07.43,1.46,1.46,0,0,1-1.48-1.48Zm.68,15.41V7.52h1.62V18.59ZM31.57,13a6.73,6.73,0,0,1,.36-2.17A5.42,5.42,0,0,1,33,9a5.18,5.18,0,0,1,1.75-1.29,5.86,5.86,0,0,1,2.49-.49,5.77,5.77,0,0,1,2.18.38,4.62,4.62,0,0,1,1.54,1,4.62,4.62,0,0,1,1.35,3H40.67a3.12,3.12,0,0,0-1-2.05,3.48,3.48,0,0,0-2.46-.81,4.26,4.26,0,0,0-1.79.35,3.49,3.49,0,0,0-1.26,1,4,4,0,0,0-.74,1.39A5.61,5.61,0,0,0,33.2,13a5.73,5.73,0,0,0,.24,1.67,3.78,3.78,0,0,0,.75,1.39,3.7,3.7,0,0,0,1.27,1,4.26,4.26,0,0,0,1.81.35,3.48,3.48,0,0,0,2.33-.71,3.34,3.34,0,0,0,1.09-1.89h1.65a4.74,4.74,0,0,1-.53,1.62,4.48,4.48,0,0,1-1.05,1.29,4.72,4.72,0,0,1-1.54.85,6.16,6.16,0,0,1-2,.31,5.86,5.86,0,0,1-2.49-.49A5.18,5.18,0,0,1,33,17.1a5.4,5.4,0,0,1-1.05-1.86A6.88,6.88,0,0,1,31.57,13Zm14,5.55V1.09H47.2V12.72l5.2-5.2h2.12L49,13.06l5.49,5.53H52.4l-5.2-5.18v5.18ZM62.75,3.05A2.76,2.76,0,0,1,63.61.79,3.62,3.62,0,0,1,66,.09V.94a2.09,2.09,0,0,0-1.16.26,1.59,1.59,0,0,0-.59.74,2,2,0,0,0-.13,1,.89.89,0,0,1,.66-.2,1.33,1.33,0,0,1,1,.41,1.42,1.42,0,0,1,.4,1,1.53,1.53,0,0,1-.42,1.07,1.47,1.47,0,0,1-1.13.45A1.64,1.64,0,0,1,63.29,5,3.07,3.07,0,0,1,62.75,3.05Zm6.8,17.19h1.57a6.14,6.14,0,0,0,.21,1.46,2.76,2.76,0,0,0,.6,1.12,2.8,2.8,0,0,0,1.1.73,4.72,4.72,0,0,0,1.69.26,3.46,3.46,0,0,0,2.66-.94,4.74,4.74,0,0,0,.87-3.23V16.16a4.47,4.47,0,0,1-1.56,2,5.33,5.33,0,0,1-4.71.38,3.48,3.48,0,0,1-2-2.44,9,9,0,0,1-.21-2.17V7.52h1.62v5.9A7.84,7.84,0,0,0,71.53,15,3.44,3.44,0,0,0,72,16.27a2.48,2.48,0,0,0,1,.82,3.33,3.33,0,0,0,1.5.3A3.71,3.71,0,0,0,76.21,17a3.47,3.47,0,0,0,1.18-1,3.86,3.86,0,0,0,.67-1.35,5.69,5.69,0,0,0,.21-1.52V7.52h1.62V19.64q0,3-1.34,4.33a5.2,5.2,0,0,1-3.82,1.32,6.66,6.66,0,0,1-2.39-.38,4,4,0,0,1-1.58-1,4.26,4.26,0,0,1-.89-1.6A7.37,7.37,0,0,1,69.56,20.24ZM83,13a6.74,6.74,0,0,1,.37-2.26,5.45,5.45,0,0,1,1-1.81A4.79,4.79,0,0,1,86.11,7.7a5.38,5.38,0,0,1,2.21-.44,5.71,5.71,0,0,1,2.11.38,5,5,0,0,1,1.66,1,4.78,4.78,0,0,1,1.09,1.57,4.88,4.88,0,0,1,.39,2q0,.22,0,.51t-.07.67H84.65A5.14,5.14,0,0,0,84.88,15a3.71,3.71,0,0,0,.71,1.3,3.35,3.35,0,0,0,1.2.88,4.15,4.15,0,0,0,1.7.32,3.52,3.52,0,0,0,2.22-.62,3.18,3.18,0,0,0,1.08-1.43h1.61a4,4,0,0,1-.55,1.3,4.23,4.23,0,0,1-1,1.1,5.27,5.27,0,0,1-1.47.76,5.77,5.77,0,0,1-1.89.29,5.54,5.54,0,0,1-2.4-.49,4.89,4.89,0,0,1-1.7-1.3,5.58,5.58,0,0,1-1-1.88A7.22,7.22,0,0,1,83,13Zm1.65-.84H92a3.63,3.63,0,0,0-.27-1.42A3.21,3.21,0,0,0,89.8,8.89a4.2,4.2,0,0,0-1.45-.25,3.56,3.56,0,0,0-2.57,1A3.74,3.74,0,0,0,84.67,12.15Zm11.25,2.7H97.5a2.8,2.8,0,0,0,.25,1.25,2.22,2.22,0,0,0,.69.82,2.84,2.84,0,0,0,1,.46,5.48,5.48,0,0,0,1.26.14,3.24,3.24,0,0,0,1.88-.46,1.53,1.53,0,0,0,.66-1.34,1.39,1.39,0,0,0-.3-.94,2.16,2.16,0,0,0-.8-.56,6.22,6.22,0,0,0-1.15-.35l-1.4-.3a8.56,8.56,0,0,0-1.17-.39,3.13,3.13,0,0,1-1.08-.5,2.58,2.58,0,0,1-1.07-2.23A2.8,2.8,0,0,1,96.63,9a3.14,3.14,0,0,1,.88-1,3.73,3.73,0,0,1,1.3-.59,6.48,6.48,0,0,1,1.6-.19,5.52,5.52,0,0,1,1.7.25,3.94,3.94,0,0,1,1.34.73,3.3,3.3,0,0,1,.88,1.17,3.64,3.64,0,0,1,.32,1.53h-1.4a2.1,2.1,0,0,0-.75-1.75,3.22,3.22,0,0,0-2.06-.6,3.3,3.3,0,0,0-1.86.48,1.58,1.58,0,0,0-.72,1.4,1.14,1.14,0,0,0,.32.84,2.48,2.48,0,0,0,.93.54,7.44,7.44,0,0,0,.94.29l1.15.24,1.41.36a2.92,2.92,0,0,1,1.09.51,2.81,2.81,0,0,1,.82.95,2.94,2.94,0,0,1,.31,1.41A2.83,2.83,0,0,1,103.69,18a4.82,4.82,0,0,1-3,.84,7.19,7.19,0,0,1-1.88-.24,4.33,4.33,0,0,1-1.53-.74,3.57,3.57,0,0,1-1-1.25A4,4,0,0,1,95.92,14.84ZM106,1.5A1.48,1.48,0,0,1,107.56,0a1.66,1.66,0,0,1,1.34.65,3,3,0,0,1,.53,2,3,3,0,0,1-.85,2.32,3.42,3.42,0,0,1-2.37.77V4.82a2.23,2.23,0,0,0,1.1-.25,1.47,1.47,0,0,0,.66-.78,2.12,2.12,0,0,0,.13-.65,1.34,1.34,0,0,0,0-.37.87.87,0,0,1-.65.2,1.32,1.32,0,0,1-1-.43A1.46,1.46,0,0,1,106,1.5Zm11.8,7.42V7.52H120V3.42h1.62v4.1h3.21V8.91h-3.21v5.65a5,5,0,0,0,.16,1.42,2,2,0,0,0,.44.82,1.27,1.27,0,0,0,.63.37,3.4,3.4,0,0,0,.79.09q.4,0,.85,0t.74-.09v1.45l-.85.1q-.52,0-1,0a6.88,6.88,0,0,1-1.12-.1,2.31,2.31,0,0,1-1.08-.49,3,3,0,0,1-.82-1.17,5.38,5.38,0,0,1-.33-2.09v-6Zm8.77,4.15a6.08,6.08,0,0,1,.42-2.23A5.5,5.5,0,0,1,128.2,9,5.64,5.64,0,0,1,130,7.73a6.36,6.36,0,0,1,4.77,0A5.76,5.76,0,0,1,136.65,9a5.34,5.34,0,0,1,1.18,1.85,6.29,6.29,0,0,1,0,4.46,5.5,5.5,0,0,1-3,3.12,6.45,6.45,0,0,1-4.8,0,5.55,5.55,0,0,1-1.83-1.26A5.67,5.67,0,0,1,127,15.3,6,6,0,0,1,126.6,13.06Zm1.62,0a4.55,4.55,0,0,0,.3,1.65,4.41,4.41,0,0,0,.84,1.37,3.93,3.93,0,0,0,1.31,1,4.17,4.17,0,0,0,1.75.35,4.11,4.11,0,0,0,1.73-.35,4.07,4.07,0,0,0,2.17-2.31,4.84,4.84,0,0,0,0-3.35,4.21,4.21,0,0,0-.85-1.37,4,4,0,0,0-1.32-.94,4.46,4.46,0,0,0-3.45,0,4,4,0,0,0-1.32,1,4.34,4.34,0,0,0-.85,1.39A4.62,4.62,0,0,0,128.23,13.06Zm18.05-4.15V7.52h2.5V5a5.83,5.83,0,0,1,.35-2.24A3,3,0,0,1,150,1.58a2.63,2.63,0,0,1,1.13-.52,5.91,5.91,0,0,1,1.1-.12,5.17,5.17,0,0,1,1,.07,2.76,2.76,0,0,1,.64.21V2.61a2.89,2.89,0,0,0-.6-.17,4.61,4.61,0,0,0-.73,0,3.88,3.88,0,0,0-.75.07,1.56,1.56,0,0,0-.68.32,1.71,1.71,0,0,0-.5.75,3.93,3.93,0,0,0-.19,1.35V7.52h3.45V8.91H150.4v9.68h-1.62V8.91Zm9.52-5.73a1.43,1.43,0,0,1,1.44-1.44,1.54,1.54,0,0,1,1.09.42,1.34,1.34,0,0,1,.45,1,1.46,1.46,0,0,1-.45,1.08,1.5,1.5,0,0,1-1.09.44,1.35,1.35,0,0,1-1-.44A1.52,1.52,0,0,1,155.8,3.19Zm.63,15.41V7.52h1.62V18.59Zm6,0V7.52h1.62V9.94a4.37,4.37,0,0,1,4.25-2.67,5.09,5.09,0,0,1,1.84.33,3.41,3.41,0,0,1,1.45,1,4,4,0,0,1,.73,1.48,7.6,7.6,0,0,1,.23,2v6.49h-1.62v-6a6,6,0,0,0-.18-1.53,3.4,3.4,0,0,0-.57-1.21,2.8,2.8,0,0,0-1-.81,3.16,3.16,0,0,0-1.43-.3,3.54,3.54,0,0,0-1.65.36A3.31,3.31,0,0,0,165,10a4.32,4.32,0,0,0-.68,1.35,5.25,5.25,0,0,0-.23,1.52v5.68Zm13-5.53a6.08,6.08,0,0,1,.42-2.23,5.53,5.53,0,0,1,3-3.1,5.47,5.47,0,0,1,2.26-.46,5.11,5.11,0,0,1,2.66.69,4.28,4.28,0,0,1,1.73,1.93V1.09h1.62v17.5h-1.62V16.24a4.63,4.63,0,0,1-1.64,1.88,4.74,4.74,0,0,1-2.73.76,5.49,5.49,0,0,1-4.07-1.73,5.77,5.77,0,0,1-1.17-1.85A6,6,0,0,1,175.5,13.06Zm1.62,0a4.55,4.55,0,0,0,.3,1.65,4.41,4.41,0,0,0,.84,1.37,3.93,3.93,0,0,0,1.31,1,4.17,4.17,0,0,0,1.75.35,4.11,4.11,0,0,0,1.73-.35,4.07,4.07,0,0,0,2.17-2.31,4.84,4.84,0,0,0,0-3.35,4.21,4.21,0,0,0-.85-1.37,4,4,0,0,0-1.32-.94,4.46,4.46,0,0,0-3.45,0,4,4,0,0,0-1.32,1,4.34,4.34,0,0,0-.85,1.39A4.62,4.62,0,0,0,177.13,13.06Zm19.55,0a6.08,6.08,0,0,1,.42-2.23A5.5,5.5,0,0,1,198.27,9a5.64,5.64,0,0,1,1.84-1.25,6.36,6.36,0,0,1,4.77,0A5.76,5.76,0,0,1,206.73,9a5.34,5.34,0,0,1,1.18,1.85,6.29,6.29,0,0,1,0,4.46,5.5,5.5,0,0,1-3,3.12,6.45,6.45,0,0,1-4.8,0,5.55,5.55,0,0,1-1.83-1.26,5.67,5.67,0,0,1-1.18-1.85A6,6,0,0,1,196.68,13.06Zm1.62,0a4.55,4.55,0,0,0,.3,1.65,4.41,4.41,0,0,0,.84,1.37,3.93,3.93,0,0,0,1.31,1,4.17,4.17,0,0,0,1.75.35,4.11,4.11,0,0,0,1.73-.35,4.07,4.07,0,0,0,2.17-2.31,4.84,4.84,0,0,0,0-3.35,4.21,4.21,0,0,0-.85-1.37,4,4,0,0,0-1.32-.94,4.46,4.46,0,0,0-3.45,0,4,4,0,0,0-1.32,1,4.34,4.34,0,0,0-.85,1.39A4.62,4.62,0,0,0,198.3,13.06Zm12.93,1V7.52h1.62v6a6.07,6.07,0,0,0,.18,1.53,3.39,3.39,0,0,0,.57,1.21,2.79,2.79,0,0,0,1,.81,3.15,3.15,0,0,0,1.43.3,3.39,3.39,0,0,0,2.8-1.33,4.12,4.12,0,0,0,.69-1.35,5.26,5.26,0,0,0,.23-1.52V7.52h1.62V18.59h-1.62V16.16a4.63,4.63,0,0,1-1.54,1.92,4.35,4.35,0,0,1-2.68.79,5,5,0,0,1-1.9-.35,3.61,3.61,0,0,1-1.45-1,3.73,3.73,0,0,1-.71-1.41A7.72,7.72,0,0,1,211.23,14Zm12.69-5.1V7.52h2.22V3.42h1.62v4.1H231V8.91h-3.21v5.65a5,5,0,0,0,.16,1.42,2,2,0,0,0,.44.82,1.27,1.27,0,0,0,.63.37,3.4,3.4,0,0,0,.79.09q.4,0,.85,0t.74-.09v1.45l-.85.1q-.52,0-1,0a6.88,6.88,0,0,1-1.12-.1,2.31,2.31,0,0,1-1.08-.49,3,3,0,0,1-.82-1.17,5.38,5.38,0,0,1-.33-2.09v-6Zm15.75-5.73a1.45,1.45,0,0,1,1.48-1.49,1.47,1.47,0,0,1,1.07.42,1.44,1.44,0,0,1,.43,1.07,1.43,1.43,0,0,1-.43,1,1.46,1.46,0,0,1-1.07.43,1.46,1.46,0,0,1-1.48-1.48Zm.68,15.41V7.52H242V18.59Zm4.54-9.68V7.52h2.5V5a5.83,5.83,0,0,1,.35-2.24,3,3,0,0,1,.87-1.22,2.63,2.63,0,0,1,1.13-.52,5.91,5.91,0,0,1,1.1-.12,5.17,5.17,0,0,1,1,.07,2.76,2.76,0,0,1,.64.21V2.61a2.89,2.89,0,0,0-.6-.17,4.61,4.61,0,0,0-.73,0,3.88,3.88,0,0,0-.75.07,1.56,1.56,0,0,0-.68.32,1.71,1.71,0,0,0-.5.75A3.93,3.93,0,0,0,249,4.9V7.52h3.45V8.91H249v9.68H247.4V8.91ZM261,20.24h1.57a6.14,6.14,0,0,0,.21,1.46,2.76,2.76,0,0,0,.6,1.12,2.8,2.8,0,0,0,1.1.73,4.72,4.72,0,0,0,1.69.26,3.46,3.46,0,0,0,2.66-.94,4.74,4.74,0,0,0,.87-3.23V16.16a4.47,4.47,0,0,1-1.56,2,5.33,5.33,0,0,1-4.71.38,3.48,3.48,0,0,1-2-2.44,9,9,0,0,1-.21-2.17V7.52h1.62v5.9A7.84,7.84,0,0,0,263,15a3.44,3.44,0,0,0,.51,1.25,2.48,2.48,0,0,0,1,.82,3.33,3.33,0,0,0,1.5.3,3.71,3.71,0,0,0,1.71-.37,3.47,3.47,0,0,0,1.18-1,3.86,3.86,0,0,0,.67-1.35,5.69,5.69,0,0,0,.21-1.52V7.52h1.62V19.64q0,3-1.34,4.33a5.2,5.2,0,0,1-3.82,1.32,6.66,6.66,0,0,1-2.39-.38,4,4,0,0,1-1.58-1,4.26,4.26,0,0,1-.89-1.6A7.37,7.37,0,0,1,261,20.24Zm13.37-7.18a6.08,6.08,0,0,1,.42-2.23A5.5,5.5,0,0,1,275.95,9a5.64,5.64,0,0,1,1.84-1.25,6.36,6.36,0,0,1,4.77,0A5.76,5.76,0,0,1,284.41,9a5.34,5.34,0,0,1,1.18,1.85,6.29,6.29,0,0,1,0,4.46,5.5,5.5,0,0,1-3,3.12,6.45,6.45,0,0,1-4.8,0,5.55,5.55,0,0,1-1.83-1.26,5.67,5.67,0,0,1-1.18-1.85A6,6,0,0,1,274.35,13.06Zm1.62,0a4.55,4.55,0,0,0,.3,1.65,4.41,4.41,0,0,0,.84,1.37,3.93,3.93,0,0,0,1.31,1,4.17,4.17,0,0,0,1.75.35A4.11,4.11,0,0,0,281.9,17a4.07,4.07,0,0,0,2.17-2.31,4.84,4.84,0,0,0,0-3.35,4.22,4.22,0,0,0-.85-1.37,4,4,0,0,0-1.32-.94,4.46,4.46,0,0,0-3.45,0,4,4,0,0,0-1.32,1,4.34,4.34,0,0,0-.85,1.39A4.62,4.62,0,0,0,276,13.06Zm12.93,1V7.52h1.62v6a6.07,6.07,0,0,0,.18,1.53,3.39,3.39,0,0,0,.57,1.21,2.79,2.79,0,0,0,1,.81,3.15,3.15,0,0,0,1.43.3,3.39,3.39,0,0,0,2.8-1.33,4.12,4.12,0,0,0,.69-1.35,5.26,5.26,0,0,0,.23-1.52V7.52H299V18.59h-1.62V16.16a4.63,4.63,0,0,1-1.54,1.92,4.35,4.35,0,0,1-2.68.79,5,5,0,0,1-1.9-.35,3.61,3.61,0,0,1-1.45-1,3.73,3.73,0,0,1-.71-1.41A7.72,7.72,0,0,1,288.91,14Zm14.24,4.58V7.52h1.62v2.62a4.08,4.08,0,0,1,1.59-2.07,4.23,4.23,0,0,1,2.37-.71,3.66,3.66,0,0,1,.57,0,1.78,1.78,0,0,1,.48.14V9l-.54-.1a3.08,3.08,0,0,0-.43,0,3.93,3.93,0,0,0-1.81.39,3.59,3.59,0,0,0-1.25,1,4.43,4.43,0,0,0-.73,1.51,6.93,6.93,0,0,0-.24,1.84v4.92Zm15.2,0V1.09H320v17.5Zm5.37-15.41A1.45,1.45,0,0,1,325.2,1.7a1.47,1.47,0,0,1,1.07.42,1.44,1.44,0,0,1,.43,1.07,1.43,1.43,0,0,1-.43,1,1.46,1.46,0,0,1-1.07.43,1.46,1.46,0,0,1-1.48-1.48Zm.68,15.41V7.52H326V18.59ZM329,8.91V7.52h2.5V5a5.83,5.83,0,0,1,.35-2.24,3,3,0,0,1,.87-1.22,2.63,2.63,0,0,1,1.13-.52,5.91,5.91,0,0,1,1.1-.12,5.17,5.17,0,0,1,1,.07,2.76,2.76,0,0,1,.64.21V2.61a2.89,2.89,0,0,0-.6-.17,4.61,4.61,0,0,0-.73,0,3.88,3.88,0,0,0-.75.07,1.56,1.56,0,0,0-.68.32,1.71,1.71,0,0,0-.5.75,3.93,3.93,0,0,0-.19,1.35V7.52h3.45V8.91h-3.45v9.68h-1.62V8.91ZM337.56,13a6.74,6.74,0,0,1,.37-2.26,5.45,5.45,0,0,1,1-1.81,4.79,4.79,0,0,1,1.67-1.21,5.38,5.38,0,0,1,2.21-.44,5.71,5.71,0,0,1,2.11.38,5,5,0,0,1,1.66,1,4.78,4.78,0,0,1,1.09,1.57,4.88,4.88,0,0,1,.39,2q0,.22,0,.51t-.07.67h-8.84a5.14,5.14,0,0,0,.24,1.57,3.71,3.71,0,0,0,.71,1.3,3.35,3.35,0,0,0,1.2.88,4.15,4.15,0,0,0,1.7.32,3.52,3.52,0,0,0,2.22-.62,3.18,3.18,0,0,0,1.08-1.43H348a4,4,0,0,1-.55,1.3,4.23,4.23,0,0,1-1,1.1,5.27,5.27,0,0,1-1.47.76,5.77,5.77,0,0,1-1.89.29,5.54,5.54,0,0,1-2.4-.49,4.89,4.89,0,0,1-1.7-1.3,5.58,5.58,0,0,1-1-1.88A7.22,7.22,0,0,1,337.56,13Zm1.65-.84h7.32a3.63,3.63,0,0,0-.27-1.42,3.21,3.21,0,0,0-1.92-1.83,4.2,4.2,0,0,0-1.45-.25,3.56,3.56,0,0,0-2.57,1A3.74,3.74,0,0,0,339.21,12.15Zm11.25,2.7H352a2.8,2.8,0,0,0,.25,1.25,2.22,2.22,0,0,0,.69.82,2.84,2.84,0,0,0,1,.46,5.48,5.48,0,0,0,1.26.14,3.24,3.24,0,0,0,1.88-.46,1.53,1.53,0,0,0,.66-1.34,1.39,1.39,0,0,0-.3-.94,2.16,2.16,0,0,0-.8-.56,6.22,6.22,0,0,0-1.15-.35l-1.4-.3a8.56,8.56,0,0,0-1.17-.39,3.13,3.13,0,0,1-1.08-.5,2.58,2.58,0,0,1-1.07-2.23A2.8,2.8,0,0,1,351.17,9a3.14,3.14,0,0,1,.88-1,3.73,3.73,0,0,1,1.3-.59,6.48,6.48,0,0,1,1.6-.19,5.52,5.52,0,0,1,1.7.25,3.94,3.94,0,0,1,1.34.73,3.3,3.3,0,0,1,.88,1.17,3.64,3.64,0,0,1,.32,1.53h-1.4A2.1,2.1,0,0,0,357,9.19a3.22,3.22,0,0,0-2.06-.6,3.3,3.3,0,0,0-1.86.48,1.58,1.58,0,0,0-.72,1.4,1.14,1.14,0,0,0,.32.84,2.48,2.48,0,0,0,.93.54,7.44,7.44,0,0,0,.94.29l1.15.24,1.41.36a2.92,2.92,0,0,1,1.09.51,2.81,2.81,0,0,1,.82.95,2.94,2.94,0,0,1,.31,1.41A2.83,2.83,0,0,1,358.23,18a4.82,4.82,0,0,1-3,.84,7.19,7.19,0,0,1-1.88-.24,4.33,4.33,0,0,1-1.53-.74,3.57,3.57,0,0,1-1-1.25A4,4,0,0,1,350.46,14.84Zm10.28-5.93V7.52H363V3.42h1.62v4.1h3.21V8.91h-3.21v5.65a5,5,0,0,0,.16,1.42,2,2,0,0,0,.44.82,1.27,1.27,0,0,0,.63.37,3.4,3.4,0,0,0,.79.09q.4,0,.85,0t.74-.09v1.45l-.85.1q-.52,0-1,0a6.88,6.88,0,0,1-1.12-.1,2.31,2.31,0,0,1-1.08-.49A3,3,0,0,1,363.3,17a5.38,5.38,0,0,1-.33-2.09v-6Zm9.6,11.33h1.57a6.14,6.14,0,0,0,.21,1.46,2.76,2.76,0,0,0,.6,1.12,2.8,2.8,0,0,0,1.1.73,4.72,4.72,0,0,0,1.69.26,3.46,3.46,0,0,0,2.66-.94,4.74,4.74,0,0,0,.87-3.23V16.16a4.47,4.47,0,0,1-1.56,2,5.33,5.33,0,0,1-4.71.38,3.48,3.48,0,0,1-2-2.44,9,9,0,0,1-.21-2.17V7.52h1.62v5.9a7.84,7.84,0,0,0,.15,1.61,3.44,3.44,0,0,0,.51,1.25,2.48,2.48,0,0,0,1,.82,3.33,3.33,0,0,0,1.5.3A3.71,3.71,0,0,0,377,17a3.47,3.47,0,0,0,1.18-1,3.86,3.86,0,0,0,.67-1.35,5.69,5.69,0,0,0,.21-1.52V7.52h1.62V19.64q0,3-1.34,4.33a5.2,5.2,0,0,1-3.82,1.32,6.66,6.66,0,0,1-2.39-.38,4,4,0,0,1-1.58-1,4.26,4.26,0,0,1-.89-1.6A7.37,7.37,0,0,1,370.35,20.24Zm14.37-1.65V1.09h1.62v17.5Zm4.87-5.6a6.74,6.74,0,0,1,.37-2.26,5.45,5.45,0,0,1,1-1.81,4.79,4.79,0,0,1,1.67-1.21,5.38,5.38,0,0,1,2.21-.44,5.71,5.71,0,0,1,2.11.38,5,5,0,0,1,1.66,1,4.78,4.78,0,0,1,1.09,1.57,4.88,4.88,0,0,1,.39,2q0,.22,0,.51t-.07.67h-8.84a5.14,5.14,0,0,0,.24,1.57,3.71,3.71,0,0,0,.71,1.3,3.35,3.35,0,0,0,1.2.88,4.15,4.15,0,0,0,1.7.32,3.52,3.52,0,0,0,2.22-.62,3.18,3.18,0,0,0,1.08-1.43H400a4,4,0,0,1-.55,1.3,4.23,4.23,0,0,1-1,1.1,5.27,5.27,0,0,1-1.47.76,5.77,5.77,0,0,1-1.89.29,5.54,5.54,0,0,1-2.4-.49,4.89,4.89,0,0,1-1.7-1.3,5.58,5.58,0,0,1-1-1.88A7.22,7.22,0,0,1,389.59,13Zm1.65-.84h7.32a3.63,3.63,0,0,0-.27-1.42,3.21,3.21,0,0,0-1.92-1.83,4.2,4.2,0,0,0-1.45-.25,3.56,3.56,0,0,0-2.57,1A3.74,3.74,0,0,0,391.24,12.15Zm18.2-9a1.45,1.45,0,0,1,1.48-1.49,1.47,1.47,0,0,1,1.07.42,1.44,1.44,0,0,1,.43,1.07,1.43,1.43,0,0,1-.43,1,1.46,1.46,0,0,1-1.07.43,1.46,1.46,0,0,1-1.48-1.48Zm.68,15.41V7.52h1.62V18.59Zm5.07-3.75h1.57a2.8,2.8,0,0,0,.25,1.25,2.22,2.22,0,0,0,.69.82,2.84,2.84,0,0,0,1,.46,5.48,5.48,0,0,0,1.26.14,3.24,3.24,0,0,0,1.88-.46,1.53,1.53,0,0,0,.66-1.34,1.39,1.39,0,0,0-.3-.94,2.16,2.16,0,0,0-.8-.56,6.22,6.22,0,0,0-1.15-.35l-1.4-.3a8.56,8.56,0,0,0-1.17-.39,3.13,3.13,0,0,1-1.08-.5,2.58,2.58,0,0,1-1.07-2.23A2.8,2.8,0,0,1,415.9,9a3.14,3.14,0,0,1,.88-1,3.73,3.73,0,0,1,1.3-.59,6.48,6.48,0,0,1,1.6-.19,5.52,5.52,0,0,1,1.7.25,3.94,3.94,0,0,1,1.34.73,3.3,3.3,0,0,1,.88,1.17,3.64,3.64,0,0,1,.32,1.53h-1.4a2.1,2.1,0,0,0-.75-1.75,3.22,3.22,0,0,0-2.06-.6,3.3,3.3,0,0,0-1.86.48,1.58,1.58,0,0,0-.72,1.4,1.14,1.14,0,0,0,.32.84,2.48,2.48,0,0,0,.93.54,7.44,7.44,0,0,0,.94.29l1.15.24,1.41.36a2.92,2.92,0,0,1,1.09.51,2.81,2.81,0,0,1,.82.95,2.94,2.94,0,0,1,.31,1.41A2.83,2.83,0,0,1,423,18a4.82,4.82,0,0,1-3,.84,7.19,7.19,0,0,1-1.88-.24,4.33,4.33,0,0,1-1.53-.74,3.57,3.57,0,0,1-1-1.25A4,4,0,0,1,415.19,14.84Z" fill="#fff"/>
        <g>
          <path d="M27.67,43A6.73,6.73,0,0,1,28,40.86,5.42,5.42,0,0,1,29.08,39a5.17,5.17,0,0,1,1.75-1.29,5.87,5.87,0,0,1,2.49-.49,5.77,5.77,0,0,1,2.18.38,4.63,4.63,0,0,1,1.54,1,4.62,4.62,0,0,1,1.35,3H36.77a3.12,3.12,0,0,0-1-2.05,3.48,3.48,0,0,0-2.46-.8,4.26,4.26,0,0,0-1.79.35,3.48,3.48,0,0,0-1.26,1,3.94,3.94,0,0,0-.74,1.39A5.6,5.6,0,0,0,29.3,43a5.74,5.74,0,0,0,.24,1.67,3.8,3.8,0,0,0,.75,1.39,3.7,3.7,0,0,0,1.27,1,4.26,4.26,0,0,0,1.81.35,3.48,3.48,0,0,0,2.33-.71,3.34,3.34,0,0,0,1.09-1.89h1.65a4.74,4.74,0,0,1-.53,1.62,4.48,4.48,0,0,1-1.05,1.29,4.72,4.72,0,0,1-1.54.85,6.17,6.17,0,0,1-2,.31,5.87,5.87,0,0,1-2.49-.49,5.18,5.18,0,0,1-1.75-1.29A5.4,5.4,0,0,1,28,45.23,6.87,6.87,0,0,1,27.67,43Z" fill="#fff"/>
          <path d="M40.57,43.06A6.08,6.08,0,0,1,41,40.83,5.51,5.51,0,0,1,42.17,39,5.65,5.65,0,0,1,44,37.73a6.36,6.36,0,0,1,4.77,0A5.78,5.78,0,0,1,50.63,39a5.34,5.34,0,0,1,1.18,1.85,6.29,6.29,0,0,1,0,4.46,5.5,5.5,0,0,1-3,3.12,6.44,6.44,0,0,1-4.8,0,5.55,5.55,0,0,1-1.83-1.26A5.67,5.67,0,0,1,41,45.3,6,6,0,0,1,40.57,43.06Zm1.62,0a4.54,4.54,0,0,0,.3,1.65,4.4,4.4,0,0,0,.84,1.37,3.93,3.93,0,0,0,1.31,1,4.16,4.16,0,0,0,1.75.35A4.1,4.1,0,0,0,48.12,47a4.07,4.07,0,0,0,2.17-2.31,4.84,4.84,0,0,0,0-3.35A4.22,4.22,0,0,0,49.45,40a4,4,0,0,0-1.32-.94,4.46,4.46,0,0,0-3.45,0,3.94,3.94,0,0,0-1.32,1,4.32,4.32,0,0,0-.85,1.39A4.61,4.61,0,0,0,42.2,43.06Z" fill="#fff"/>
          <path d="M55.37,48.59V37.52H57v2.42a4.16,4.16,0,0,1,.43-1,3.18,3.18,0,0,1,.74-.85,3.75,3.75,0,0,1,1.06-.59,3.9,3.9,0,0,1,1.37-.23,3.68,3.68,0,0,1,2.31.71,3.26,3.26,0,0,1,1.19,2,4.05,4.05,0,0,1,.46-1,3.61,3.61,0,0,1,.79-.89,3.82,3.82,0,0,1,1.12-.63,4.24,4.24,0,0,1,1.48-.24,3.56,3.56,0,0,1,2.79,1.12,4.68,4.68,0,0,1,1,3.24v7H70.1V42.06a3.67,3.67,0,0,0-.74-2.56,2.46,2.46,0,0,0-1.88-.79,2.64,2.64,0,0,0-2.31,1.17A5.3,5.3,0,0,0,64.36,43v5.63H62.74V42.37a6.38,6.38,0,0,0-.2-1.73A3.09,3.09,0,0,0,62,39.52a2,2,0,0,0-.82-.61,2.75,2.75,0,0,0-1-.19,2.67,2.67,0,0,0-2.33,1.18A5.25,5.25,0,0,0,57,43v5.63Z" fill="#fff"/>
          <path d="M75.66,55V37.52h1.62v2.34A4.51,4.51,0,0,1,78.92,38a4.85,4.85,0,0,1,2.75-.74,5.47,5.47,0,0,1,2.26.46A5.62,5.62,0,0,1,85.71,39a5.74,5.74,0,0,1,1.17,1.84A5.91,5.91,0,0,1,87.3,43a6.06,6.06,0,0,1-.42,2.24,5.83,5.83,0,0,1-1.17,1.87,5.5,5.5,0,0,1-4,1.73,4.74,4.74,0,0,1-2.74-.76,4.62,4.62,0,0,1-1.64-1.9V55Zm1.62-12a4.72,4.72,0,0,0,.3,1.69A4.23,4.23,0,0,0,83.21,47a4.06,4.06,0,0,0,1.32-1,4.28,4.28,0,0,0,.85-1.39,4.65,4.65,0,0,0,.3-1.67,4.52,4.52,0,0,0-.3-1.63A4.46,4.46,0,0,0,84.54,40a3.82,3.82,0,0,0-1.31-1,4.22,4.22,0,0,0-1.75-.35,4.16,4.16,0,0,0-1.73.35,4,4,0,0,0-1.32.94,4.2,4.2,0,0,0-.85,1.38A4.61,4.61,0,0,0,77.28,43Z" fill="#fff"/>
          <path d="M89.47,43.06a6.08,6.08,0,0,1,.42-2.23,5.53,5.53,0,0,1,3-3.1,5.46,5.46,0,0,1,2.26-.46,5.11,5.11,0,0,1,2.66.69,4.29,4.29,0,0,1,1.73,1.94V37.52h1.62V48.59H99.5V46.24a4.63,4.63,0,0,1-1.64,1.88,4.74,4.74,0,0,1-2.73.76,5.5,5.5,0,0,1-4.07-1.73,5.76,5.76,0,0,1-1.17-1.85A6,6,0,0,1,89.47,43.06Zm1.62,0a4.54,4.54,0,0,0,.3,1.65,4.4,4.4,0,0,0,.84,1.37,3.93,3.93,0,0,0,1.31,1,4.16,4.16,0,0,0,1.75.35A4.1,4.1,0,0,0,97,47a4.07,4.07,0,0,0,2.17-2.31,4.84,4.84,0,0,0,0-3.35A4.22,4.22,0,0,0,98.35,40,4,4,0,0,0,97,39.06a4.46,4.46,0,0,0-3.45,0,3.94,3.94,0,0,0-1.32,1,4.32,4.32,0,0,0-.85,1.39A4.61,4.61,0,0,0,91.1,43.06Z" fill="#fff"/>
          <path d="M103.72,38.91V37.52h2.22v-4.1h1.62v4.1h3.21v1.39h-3.21v5.65a5,5,0,0,0,.17,1.42,2,2,0,0,0,.44.82,1.27,1.27,0,0,0,.63.37,3.42,3.42,0,0,0,.79.09q.4,0,.85,0t.74-.09v1.45l-.85.1q-.52,0-1,0a6.85,6.85,0,0,1-1.12-.1,2.31,2.31,0,0,1-1.08-.49,3,3,0,0,1-.82-1.17,5.38,5.38,0,0,1-.33-2.09v-6Z" fill="#fff"/>
          <path d="M113.08,33.19a1.45,1.45,0,0,1,1.48-1.49,1.47,1.47,0,0,1,1.07.42,1.53,1.53,0,0,1,0,2.12,1.46,1.46,0,0,1-1.07.43,1.46,1.46,0,0,1-1.48-1.48Zm.68,15.41V37.52h1.62V48.59Z" fill="#fff"/>
          <path d="M119.81,48.59V31.09h1.62v8.8A4.27,4.27,0,0,1,123.17,38a5.14,5.14,0,0,1,2.67-.69,5.47,5.47,0,0,1,2.26.46A5.62,5.62,0,0,1,129.89,39,5.53,5.53,0,0,1,131,40.83a6.16,6.16,0,0,1,.41,2.23,6,6,0,0,1-.42,2.23,5.86,5.86,0,0,1-1.17,1.86,5.5,5.5,0,0,1-4,1.73,4.8,4.8,0,0,1-2.74-.75,4.56,4.56,0,0,1-1.64-1.89v2.36Zm1.62-5.53a4.65,4.65,0,0,0,.3,1.67A4.26,4.26,0,0,0,127.38,47a3.93,3.93,0,0,0,1.31-1,4.41,4.41,0,0,0,.84-1.37,4.54,4.54,0,0,0,.3-1.65,4.6,4.6,0,0,0-.3-1.66,4.34,4.34,0,0,0-.85-1.39,3.94,3.94,0,0,0-1.32-1,4.46,4.46,0,0,0-3.45,0,4,4,0,0,0-1.32.94,4.2,4.2,0,0,0-.85,1.38A4.68,4.68,0,0,0,121.43,43.06Z" fill="#fff"/>
          <path d="M134.63,48.59V31.09h1.62v17.5Z" fill="#fff"/>
          <path d="M139.5,43a6.74,6.74,0,0,1,.37-2.26,5.45,5.45,0,0,1,1-1.81,4.79,4.79,0,0,1,1.67-1.21,5.38,5.38,0,0,1,2.21-.44,5.7,5.7,0,0,1,2.11.38,5,5,0,0,1,1.66,1,4.79,4.79,0,0,1,1.09,1.58,4.88,4.88,0,0,1,.39,2c0,.15,0,.32,0,.51s0,.41-.07.67h-8.84a5.16,5.16,0,0,0,.24,1.58,3.72,3.72,0,0,0,.71,1.3,3.36,3.36,0,0,0,1.2.88,4.15,4.15,0,0,0,1.7.32,3.52,3.52,0,0,0,2.22-.62,3.18,3.18,0,0,0,1.08-1.43h1.61a4,4,0,0,1-.55,1.3,4.21,4.21,0,0,1-1,1.1,5.27,5.27,0,0,1-1.47.76,5.77,5.77,0,0,1-1.89.29,5.54,5.54,0,0,1-2.4-.49,4.89,4.89,0,0,1-1.7-1.3,5.57,5.57,0,0,1-1-1.88A7.22,7.22,0,0,1,139.5,43Zm1.65-.84h7.32a3.62,3.62,0,0,0-.27-1.42,3.21,3.21,0,0,0-1.92-1.83,4.19,4.19,0,0,0-1.45-.25,3.56,3.56,0,0,0-2.57,1A3.74,3.74,0,0,0,141.15,42.15Z" fill="#fff"/>
          <path d="M158.83,43a6.74,6.74,0,0,1,.37-2.26,5.45,5.45,0,0,1,1-1.81,4.79,4.79,0,0,1,1.67-1.21,5.38,5.38,0,0,1,2.21-.44,5.7,5.7,0,0,1,2.11.38,5,5,0,0,1,1.66,1A4.79,4.79,0,0,1,169,40.27a4.88,4.88,0,0,1,.39,2c0,.15,0,.32,0,.51s0,.41-.07.67h-8.84A5.16,5.16,0,0,0,160.7,45a3.72,3.72,0,0,0,.71,1.3,3.36,3.36,0,0,0,1.2.88,4.15,4.15,0,0,0,1.7.32,3.52,3.52,0,0,0,2.22-.62,3.18,3.18,0,0,0,1.08-1.43h1.61a4,4,0,0,1-.55,1.3,4.21,4.21,0,0,1-1,1.1,5.27,5.27,0,0,1-1.47.76,5.77,5.77,0,0,1-1.89.29,5.54,5.54,0,0,1-2.4-.49,4.89,4.89,0,0,1-1.7-1.3,5.57,5.57,0,0,1-1-1.88A7.22,7.22,0,0,1,158.83,43Zm1.65-.84h7.32a3.62,3.62,0,0,0-.27-1.42,3.21,3.21,0,0,0-1.92-1.83,4.19,4.19,0,0,0-1.45-.25,3.56,3.56,0,0,0-2.57,1A3.74,3.74,0,0,0,160.48,42.15Z" fill="#fff"/>
          <path d="M172.7,48.59V37.52h1.62v2.42a4.37,4.37,0,0,1,4.25-2.67,5.08,5.08,0,0,1,1.84.33,3.4,3.4,0,0,1,1.45,1,4,4,0,0,1,.73,1.48,7.62,7.62,0,0,1,.23,2v6.49H181.2v-6A6,6,0,0,0,181,41a3.4,3.4,0,0,0-.57-1.21,2.8,2.8,0,0,0-1-.81,3.16,3.16,0,0,0-1.43-.3,3.55,3.55,0,0,0-1.65.36,3.3,3.3,0,0,0-1.15,1,4.31,4.31,0,0,0-.68,1.35,5.24,5.24,0,0,0-.23,1.52v5.68Z" fill="#fff"/>
          <path d="M185.74,43.06a6.08,6.08,0,0,1,.42-2.23A5.51,5.51,0,0,1,187.33,39a5.65,5.65,0,0,1,1.84-1.25,6.36,6.36,0,0,1,4.77,0A5.78,5.78,0,0,1,195.79,39,5.34,5.34,0,0,1,197,40.83a6.29,6.29,0,0,1,0,4.46,5.5,5.5,0,0,1-3,3.12,6.44,6.44,0,0,1-4.8,0,5.55,5.55,0,0,1-1.83-1.26,5.67,5.67,0,0,1-1.18-1.85A6,6,0,0,1,185.74,43.06Zm1.62,0a4.54,4.54,0,0,0,.3,1.65,4.4,4.4,0,0,0,.84,1.37,3.93,3.93,0,0,0,1.31,1,4.16,4.16,0,0,0,1.75.35,4.1,4.1,0,0,0,1.73-.35,4.07,4.07,0,0,0,2.17-2.31,4.84,4.84,0,0,0,0-3.35,4.22,4.22,0,0,0-.85-1.37,4,4,0,0,0-1.32-.94,4.46,4.46,0,0,0-3.45,0,3.94,3.94,0,0,0-1.32,1,4.32,4.32,0,0,0-.85,1.39A4.61,4.61,0,0,0,187.36,43.06Z" fill="#fff"/>
          <path d="M200.29,44V37.52h1.62v6a6.08,6.08,0,0,0,.18,1.53,3.4,3.4,0,0,0,.57,1.21,2.79,2.79,0,0,0,1,.81,3.16,3.16,0,0,0,1.43.3,3.39,3.39,0,0,0,2.8-1.33,4.11,4.11,0,0,0,.69-1.35,5.25,5.25,0,0,0,.23-1.52V37.52h1.62V48.59H208.8V46.16a4.63,4.63,0,0,1-1.54,1.92,4.35,4.35,0,0,1-2.68.79,5,5,0,0,1-1.9-.35,3.61,3.61,0,0,1-1.45-1,3.74,3.74,0,0,1-.71-1.41A7.71,7.71,0,0,1,200.29,44Z" fill="#fff"/>
          <path d="M213.52,43a6,6,0,0,1,.42-2.22,5.55,5.55,0,0,1,3-3.09,5.52,5.52,0,0,1,2.28-.46,4.83,4.83,0,0,1,2.73.74,4.53,4.53,0,0,1,1.64,1.86V37.52h1.62v12a7.78,7.78,0,0,1-.41,2.69,4.42,4.42,0,0,1-1.17,1.8,4.74,4.74,0,0,1-1.82,1,8,8,0,0,1-2.34.32,7.14,7.14,0,0,1-2.59-.41,5,5,0,0,1-1.75-1.1,4.26,4.26,0,0,1-1-1.61,7.42,7.42,0,0,1-.4-2h1.62a5.71,5.71,0,0,0,.26,1.34,3.08,3.08,0,0,0,.68,1.17,3.37,3.37,0,0,0,1.23.81,5.08,5.08,0,0,0,1.91.31,4.39,4.39,0,0,0,3.05-1,4.3,4.3,0,0,0,1.12-3.33V46.21a4.64,4.64,0,0,1-4.37,2.66,5.5,5.5,0,0,1-4.07-1.73,5.73,5.73,0,0,1-1.17-1.86A6.11,6.11,0,0,1,213.52,43Zm1.62,0a4.65,4.65,0,0,0,.3,1.67,4.28,4.28,0,0,0,.85,1.39,4.06,4.06,0,0,0,1.32,1,4.39,4.39,0,0,0,3.45,0,4.07,4.07,0,0,0,2.17-2.31,4.71,4.71,0,0,0,.3-1.69,4.59,4.59,0,0,0-.3-1.66A4.22,4.22,0,0,0,222.4,40a4,4,0,0,0-1.32-.94,4.17,4.17,0,0,0-1.73-.35,4.22,4.22,0,0,0-1.75.35,3.81,3.81,0,0,0-1.31,1,4.43,4.43,0,0,0-.84,1.39A4.54,4.54,0,0,0,215.15,43Z" fill="#fff"/>
          <path d="M229.27,48.59V31.09h1.62v8.85a4.37,4.37,0,0,1,4.25-2.67,5.08,5.08,0,0,1,1.84.33,3.41,3.41,0,0,1,1.45,1,4,4,0,0,1,.73,1.48,7.62,7.62,0,0,1,.23,2v6.49h-1.62v-6a6,6,0,0,0-.18-1.53,3.4,3.4,0,0,0-.57-1.21,2.79,2.79,0,0,0-1-.81,3.16,3.16,0,0,0-1.43-.3,3.55,3.55,0,0,0-1.65.36,3.3,3.3,0,0,0-1.15,1,4.3,4.3,0,0,0-.68,1.35,5.23,5.23,0,0,0-.23,1.52v5.68Z" fill="#fff"/>
          <path d="M248.13,38.91V37.52h2.22v-4.1H252v4.1h3.21v1.39H252v5.65a5,5,0,0,0,.16,1.42,2,2,0,0,0,.44.82,1.27,1.27,0,0,0,.63.37,3.42,3.42,0,0,0,.79.09c.27,0,.55,0,.86,0s.55-.05.74-.09v1.45l-.85.1q-.52,0-1,0a6.86,6.86,0,0,1-1.12-.1,2.31,2.31,0,0,1-1.08-.49,3,3,0,0,1-.82-1.17,5.37,5.37,0,0,1-.33-2.09v-6Z" fill="#fff"/>
          <path d="M256.89,43.06a6.07,6.07,0,0,1,.42-2.23A5.52,5.52,0,0,1,258.49,39a5.65,5.65,0,0,1,1.84-1.25,6.35,6.35,0,0,1,4.77,0A5.78,5.78,0,0,1,266.95,39a5.34,5.34,0,0,1,1.18,1.85,6.29,6.29,0,0,1,0,4.46,5.5,5.5,0,0,1-3,3.12,6.44,6.44,0,0,1-4.8,0,5.55,5.55,0,0,1-1.83-1.26,5.68,5.68,0,0,1-1.18-1.85A6,6,0,0,1,256.89,43.06Zm1.62,0a4.55,4.55,0,0,0,.3,1.65,4.4,4.4,0,0,0,.84,1.37A3.92,3.92,0,0,0,261,47a4.16,4.16,0,0,0,1.75.35,4.09,4.09,0,0,0,3.9-2.67,4.83,4.83,0,0,0,0-3.35,4.2,4.2,0,0,0-.85-1.37,4,4,0,0,0-1.32-.94,4.46,4.46,0,0,0-3.45,0,4,4,0,0,0-1.33,1,4.34,4.34,0,0,0-.85,1.39A4.62,4.62,0,0,0,258.52,43.06Z" fill="#fff"/>
          <path d="M278.06,48.59V31.09h1.62v8.85a4.38,4.38,0,0,1,4.25-2.67,5.08,5.08,0,0,1,1.84.33,3.4,3.4,0,0,1,1.45,1,4,4,0,0,1,.73,1.48,7.62,7.62,0,0,1,.23,2v6.49h-1.62v-6a6,6,0,0,0-.18-1.53,3.38,3.38,0,0,0-.57-1.21,2.8,2.8,0,0,0-1-.81,3.16,3.16,0,0,0-1.43-.3,3.56,3.56,0,0,0-1.65.36,3.31,3.31,0,0,0-1.15,1,4.3,4.3,0,0,0-.68,1.35,5.26,5.26,0,0,0-.23,1.52v5.68Z" fill="#fff"/>
          <path d="M291.1,43.06a6.09,6.09,0,0,1,.42-2.23,5.53,5.53,0,0,1,3-3.1,5.46,5.46,0,0,1,2.26-.46,5.12,5.12,0,0,1,2.66.69,4.29,4.29,0,0,1,1.73,1.94V37.52h1.62V48.59h-1.62V46.24a4.63,4.63,0,0,1-1.63,1.88,4.74,4.74,0,0,1-2.73.76,5.5,5.5,0,0,1-4.07-1.73,5.76,5.76,0,0,1-1.17-1.85A6,6,0,0,1,291.1,43.06Zm1.62,0a4.53,4.53,0,0,0,.3,1.65,4.4,4.4,0,0,0,.84,1.37,3.94,3.94,0,0,0,1.31,1,4.16,4.16,0,0,0,1.75.35,4.11,4.11,0,0,0,1.73-.35,4.06,4.06,0,0,0,2.17-2.31,4.85,4.85,0,0,0,0-3.35A4.23,4.23,0,0,0,300,40a4,4,0,0,0-1.33-.94,4.46,4.46,0,0,0-3.45,0,3.92,3.92,0,0,0-1.32,1,4.31,4.31,0,0,0-.85,1.39A4.6,4.6,0,0,0,292.72,43.06Z" fill="#fff"/>
          <path d="M305,37.52h1.73l3.92,8.8,4-8.8h1.75l-5.15,11.07h-1.15Z" fill="#fff"/>
          <path d="M317,43a6.74,6.74,0,0,1,.37-2.26,5.43,5.43,0,0,1,1.05-1.81A4.79,4.79,0,0,1,320,37.7a5.38,5.38,0,0,1,2.21-.44,5.7,5.7,0,0,1,2.11.38,5,5,0,0,1,1.66,1,4.79,4.79,0,0,1,1.09,1.58,4.88,4.88,0,0,1,.39,2c0,.15,0,.32,0,.51s0,.41-.07.67h-8.84a5.16,5.16,0,0,0,.24,1.58,3.7,3.7,0,0,0,.71,1.3,3.35,3.35,0,0,0,1.2.88,4.15,4.15,0,0,0,1.7.32,3.51,3.51,0,0,0,2.21-.62,3.19,3.19,0,0,0,1.08-1.43h1.61a4,4,0,0,1-.55,1.3,4.22,4.22,0,0,1-1,1.1,5.26,5.26,0,0,1-1.47.76,5.76,5.76,0,0,1-1.89.29,5.55,5.55,0,0,1-2.41-.49,4.89,4.89,0,0,1-1.7-1.3,5.54,5.54,0,0,1-1-1.88A7.2,7.2,0,0,1,317,43Zm1.65-.84h7.32a3.62,3.62,0,0,0-.27-1.42,3.31,3.31,0,0,0-.76-1.12,3.27,3.27,0,0,0-1.17-.71,4.19,4.19,0,0,0-1.45-.25,3.57,3.57,0,0,0-2.57,1A3.74,3.74,0,0,0,318.61,42.15Z" fill="#fff"/>
          <path d="M336.2,43.06a6.09,6.09,0,0,1,.41-2.23,5.52,5.52,0,0,1,3-3.1,5.46,5.46,0,0,1,2.26-.46,5.11,5.11,0,0,1,2.66.69,4.29,4.29,0,0,1,1.73,1.94V37.52h1.62V48.59h-1.62V46.24a4.63,4.63,0,0,1-1.64,1.88,4.74,4.74,0,0,1-2.73.76,5.5,5.5,0,0,1-4.07-1.73,5.8,5.8,0,0,1-1.17-1.85A6,6,0,0,1,336.2,43.06Zm1.62,0a4.55,4.55,0,0,0,.3,1.65,4.42,4.42,0,0,0,.84,1.37,3.94,3.94,0,0,0,1.31,1,4.17,4.17,0,0,0,1.75.35,4.1,4.1,0,0,0,1.73-.35,4.07,4.07,0,0,0,2.17-2.31,4.85,4.85,0,0,0,0-3.35,4.22,4.22,0,0,0-.85-1.37,4,4,0,0,0-1.33-.94,4.46,4.46,0,0,0-3.45,0A3.94,3.94,0,0,0,339,40a4.32,4.32,0,0,0-.85,1.39A4.62,4.62,0,0,0,337.82,43.06Z" fill="#fff"/>
          <path d="M358.37,55V37.52H360v2.34A4.51,4.51,0,0,1,361.62,38a4.85,4.85,0,0,1,2.75-.74,5.47,5.47,0,0,1,2.26.46A5.63,5.63,0,0,1,368.42,39a5.74,5.74,0,0,1,1.17,1.84A5.93,5.93,0,0,1,370,43a6.08,6.08,0,0,1-.42,2.24,5.83,5.83,0,0,1-1.17,1.87,5.5,5.5,0,0,1-4,1.73,4.74,4.74,0,0,1-2.74-.76,4.62,4.62,0,0,1-1.64-1.9V55ZM360,43a4.73,4.73,0,0,0,.3,1.69A4.23,4.23,0,0,0,365.91,47a4.06,4.06,0,0,0,1.33-1,4.28,4.28,0,0,0,.85-1.39,4.66,4.66,0,0,0,.3-1.67,4.53,4.53,0,0,0-.3-1.63,4.47,4.47,0,0,0-.84-1.39,3.83,3.83,0,0,0-1.31-1,4.23,4.23,0,0,0-1.75-.35,4.16,4.16,0,0,0-1.73.35,4,4,0,0,0-1.33.94,4.2,4.2,0,0,0-.85,1.38A4.62,4.62,0,0,0,360,43Z" fill="#fff"/>
          <path d="M372.28,43a6.74,6.74,0,0,1,.37-2.26,5.43,5.43,0,0,1,1.05-1.81,4.79,4.79,0,0,1,1.67-1.21,5.38,5.38,0,0,1,2.21-.44,5.7,5.7,0,0,1,2.11.38,5,5,0,0,1,1.66,1,4.79,4.79,0,0,1,1.09,1.58,4.88,4.88,0,0,1,.39,2c0,.15,0,.32,0,.51s0,.41-.07.67H373.9a5.16,5.16,0,0,0,.24,1.58,3.7,3.7,0,0,0,.71,1.3,3.35,3.35,0,0,0,1.2.88,4.15,4.15,0,0,0,1.7.32,3.51,3.51,0,0,0,2.21-.62,3.19,3.19,0,0,0,1.08-1.43h1.61a4,4,0,0,1-.55,1.3,4.22,4.22,0,0,1-1,1.1,5.26,5.26,0,0,1-1.47.76,5.76,5.76,0,0,1-1.89.29,5.55,5.55,0,0,1-2.41-.49,4.89,4.89,0,0,1-1.7-1.3,5.54,5.54,0,0,1-1-1.88A7.2,7.2,0,0,1,372.28,43Zm1.65-.84h7.32a3.62,3.62,0,0,0-.27-1.42,3.31,3.31,0,0,0-.76-1.12,3.27,3.27,0,0,0-1.17-.71,4.19,4.19,0,0,0-1.45-.25,3.57,3.57,0,0,0-2.57,1A3.74,3.74,0,0,0,373.93,42.15Z" fill="#fff"/>
          <path d="M384.2,38.91V37.52h2.22v-4.1H388v4.1h3.21v1.39H388v5.65a5,5,0,0,0,.17,1.42,2,2,0,0,0,.44.82,1.27,1.27,0,0,0,.63.37,3.42,3.42,0,0,0,.79.09q.4,0,.85,0t.74-.09v1.45l-.85.1c-.35,0-.69,0-1,0a6.85,6.85,0,0,1-1.12-.1,2.31,2.31,0,0,1-1.08-.49,3,3,0,0,1-.82-1.17,5.39,5.39,0,0,1-.33-2.09v-6Z" fill="#fff"/>
          <path d="M393.27,47.23a1.45,1.45,0,0,1,.42-1,1.41,1.41,0,0,1,1-.43,1.45,1.45,0,0,1,1.08.43,1.48,1.48,0,0,1-1.08,2.53,1.4,1.4,0,0,1-1-.43A1.45,1.45,0,0,1,393.27,47.23Z" fill="#fff"/>
        </g>
      </g>
    </g>
  </g>
</svg>
