<svg xmlns="http://www.w3.org/2000/svg" width="457.3" height="96.27" viewBox="0 0 457.3 96.27">
  <title>solution</title>
  <g id="Layer_2" data-name="Layer 2">
    <g id="Layer_1-2" data-name="Layer 1">
      <g>
        <path d="M143.76,21.65a19.16,19.16,0,0,1-1.16,6.57,16.67,16.67,0,0,1-3.47,5.69,16.93,16.93,0,0,1-5.78,4,20.22,20.22,0,0,1-8.1,1.5H110.82l3.89-5.13V7.54l-3.89-5.14h14a18.33,18.33,0,0,1,14,6.11,18.91,18.91,0,0,1,3.68,6.18A20.3,20.3,0,0,1,143.76,21.65Zm-8.37,3.24a19,19,0,0,0-.74-5.3,16.5,16.5,0,0,0-2.2-4.72,15.82,15.82,0,0,0-3.56-3.75A15.26,15.26,0,0,0,124,8.7V31.13l8.88,3.7a20.32,20.32,0,0,0,1.9-4.93A21.6,21.6,0,0,0,135.39,24.89Z" fill="#fff"/>
        <path d="M173.28,27.06a12.85,12.85,0,0,1-1,5,13,13,0,0,1-2.73,4.12A12.8,12.8,0,0,1,160.37,40a12.55,12.55,0,0,1-5.07-1,13,13,0,0,1,0-23.87,12.55,12.55,0,0,1,5.07-1,12.81,12.81,0,0,1,9.18,3.79A13,13,0,0,1,172.28,22,12.84,12.84,0,0,1,173.28,27.06Zm-6.94,5.88a12.8,12.8,0,0,0-.92-4.83,16.19,16.19,0,0,0-2.52-4.23,18,18,0,0,0-3.7-3.4,19.92,19.92,0,0,0-4.51-2.34,13.9,13.9,0,0,0-.37,3.1,12.77,12.77,0,0,0,.93,4.83,16.13,16.13,0,0,0,2.5,4.21,17.59,17.59,0,0,0,3.7,3.38A20.3,20.3,0,0,0,166,36,13.7,13.7,0,0,0,166.34,32.94Z" fill="#fff"/>
        <path d="M195,39.42V25.77a5.13,5.13,0,0,0-.49-2.2,5.53,5.53,0,0,0-1.34-1.8,6.79,6.79,0,0,0-2-1.23,6.66,6.66,0,0,0-2.5-.46h0v14.2l3.93,5.13H175.4l3.89-5.13V21.37l-2.82-2.82,8.47-5L187.66,18l7.5-4.49a10.84,10.84,0,0,1,3.72,1.5,12.2,12.2,0,0,1,2.89,2.57,11.57,11.57,0,0,1,1.87,3.29,10.68,10.68,0,0,1,.67,3.75v9.62l3.93,5.13Z" fill="#fff"/>
        <path d="M214.87,17l-7-5.18L214.13,0l7,5.18Z" fill="#fff"/>
        <path d="M236.1,20.17v12.4l3,2.91-8.6,5.14a26.74,26.74,0,0,1-1.6-2.5,17.46,17.46,0,0,1-1.13-2.45,14.47,14.47,0,0,1-.69-2.61,18.19,18.19,0,0,1-.23-3V20.17h-5.13V15.82h5.13V12.58l-3-3L236.1,2.31V15.82h5.14v4.35Z" fill="#fff"/>
        <path d="M270.75,25.07a21.52,21.52,0,0,0-3.84-4,18.22,18.22,0,0,0-5.23-2.92,13.9,13.9,0,0,0-.37,3.1,12.6,12.6,0,0,0,1.2,5.46,16.24,16.24,0,0,0,3.24,4.58,18.9,18.9,0,0,0,4.72,3.42,21.57,21.57,0,0,0,5.64,2A14.35,14.35,0,0,1,272,39.16a13.14,13.14,0,0,1-9.74-.16,13,13,0,0,1,0-23.87,13.14,13.14,0,0,1,11.63.74,13.33,13.33,0,0,1,4.67,4.76Z" fill="#fff"/>
        <path d="M298.32,24.29a9.75,9.75,0,0,0-2.17-3.08A4.5,4.5,0,0,0,293,20.08v14.2l3.93,5.13H279.82l3.89-5.13V21.37l-2.82-2.82,8.47-5L292.08,18l7.54-4.49a8.88,8.88,0,0,1,4,2.22,13.39,13.39,0,0,1,2.66,3.79Z" fill="#fff"/>
        <path d="M320.71,48.16l4.3,5.09H313.59l4.81-10.78-8.51-19.11-3.56-3.05,8.88-6.85,8,17.95,4.63-10.5-4.3-5.09H335Z" fill="#fff"/>
        <path d="M341.12,46.82l-7-5.18,6.29-11.8,7,5.18Z" fill="#fff"/>
        <path d="M29.1,96.27,21.51,82.63l-8.1,13.65L3.56,78.6,0,75.46,8.51,69l7.91,14.16,2.73-4.63-3.47-3.1L24.2,69l7.91,14.16,4-6.8-4.26-5h12Z" fill="#fff"/>
        <path d="M57.23,87.25a19.86,19.86,0,0,0,9.9,5,14.35,14.35,0,0,1-4.07,2.47,13.14,13.14,0,0,1-9.74-.16,13,13,0,0,1,0-23.87,12.55,12.55,0,0,1,5.07-1,11.08,11.08,0,0,1,4.09.86,12.77,12.77,0,0,1,4,2.52,13.18,13.18,0,0,1,3,4.12,13,13,0,0,1,1.16,5.6Zm4.49-3.79a9,9,0,0,0-1.23-5,10.17,10.17,0,0,0-2.8-3,10.4,10.4,0,0,0-3-1.46q-1.41-.39-1.83-.49a15.43,15.43,0,0,0-.37,3.15v1.6a5.59,5.59,0,0,0,.23,1.6Z" fill="#fff"/>
        <path d="M101.78,94.93V81.24a5.13,5.13,0,0,0-.49-2.2,5.8,5.8,0,0,0-1.34-1.83,6.2,6.2,0,0,0-2-1.23,7,7,0,0,0-2.5-.44h0V89.8l3.93,5.13H82.21l3.89-5.13V63.52l-3-3,12.26-7.31V73L102,69a10.84,10.84,0,0,1,3.72,1.5,11.88,11.88,0,0,1,4.77,5.9,10.69,10.69,0,0,1,.67,3.75V89.8l3.93,5.13Z" fill="#fff"/>
        <path d="M136,96.13,132.91,91l-8.65,5.18A17.31,17.31,0,0,1,119,89.68a17.86,17.86,0,0,1-1.8-7.7,14.48,14.48,0,0,1,.76-4.7,10.67,10.67,0,0,1,2.36-3.93,11.6,11.6,0,0,1,4-2.71,15,15,0,0,1,5.78-1,22.4,22.4,0,0,1,5.92.81,23.79,23.79,0,0,1,5.55,2.29V88.27l2.82,2.82Zm-3.65-18.32-8.28-4a9.12,9.12,0,0,0-.6,3.19,9.58,9.58,0,0,0,.72,3.66,13.15,13.15,0,0,0,1.94,3.28,15.75,15.75,0,0,0,2.82,2.73,15.19,15.19,0,0,0,3.4,1.94Z" fill="#fff"/>
        <path d="M158.36,96.27,148.5,78.6l-3.56-3.15L153.45,69l7.91,14.16,4-6.8-4.26-5h12Z" fill="#fff"/>
        <path d="M186.48,87.25a19.86,19.86,0,0,0,9.9,5,14.35,14.35,0,0,1-4.07,2.47,13.14,13.14,0,0,1-9.74-.16,13,13,0,0,1,0-23.87,12.55,12.55,0,0,1,5.07-1,11.08,11.08,0,0,1,4.09.86,12.77,12.77,0,0,1,4,2.52,13.18,13.18,0,0,1,3,4.12,13,13,0,0,1,1.16,5.6ZM191,83.46a9,9,0,0,0-1.23-5,10.17,10.17,0,0,0-2.8-3,10.4,10.4,0,0,0-3-1.46q-1.41-.39-1.83-.49a15.43,15.43,0,0,0-.37,3.15v1.6a5.59,5.59,0,0,0,.23,1.6Z" fill="#fff"/>
        <path d="M231.87,96.13,228.81,91l-8.65,5.18a17.31,17.31,0,0,1-5.27-6.45,17.86,17.86,0,0,1-1.8-7.7,14.48,14.48,0,0,1,.76-4.7,10.67,10.67,0,0,1,2.36-3.93,11.6,11.6,0,0,1,4-2.71,15,15,0,0,1,5.78-1,22.4,22.4,0,0,1,5.92.81,23.79,23.79,0,0,1,5.55,2.29V88.27l2.82,2.82Zm-3.65-18.32-8.28-4a9.12,9.12,0,0,0-.6,3.19,9.58,9.58,0,0,0,.72,3.66A13.15,13.15,0,0,0,222,83.92a15.75,15.75,0,0,0,2.82,2.73,15.19,15.19,0,0,0,3.4,1.94Z" fill="#fff"/>
        <path d="M274.57,88a6.49,6.49,0,0,1-1,3.75,8.1,8.1,0,0,1-2.61,2.45,11.39,11.39,0,0,1-3.4,1.32,16.27,16.27,0,0,1-3.4.39,31.36,31.36,0,0,1-6.5-.67,16.57,16.57,0,0,1-6.08-2.71L257,88.27l12.17,4a4,4,0,0,0-1.48-2.43,18.4,18.4,0,0,0-2.94-2Q263,87,261.15,86A25.85,25.85,0,0,1,257.64,84,11.28,11.28,0,0,1,255,81.4,5.68,5.68,0,0,1,253.89,78a7.68,7.68,0,0,1,.95-3.91,8.11,8.11,0,0,1,2.47-2.68,10.73,10.73,0,0,1,3.47-1.53,16.32,16.32,0,0,1,4-.49,18.58,18.58,0,0,1,5.07.74,13.14,13.14,0,0,1,4.65,2.36l-5.69,4.44-10.46-3.42a4.08,4.08,0,0,0,1.62,2.43,20,20,0,0,0,3.15,2q1.8.93,3.82,1.85a26.25,26.25,0,0,1,3.72,2.08,11.62,11.62,0,0,1,2.82,2.64A5.77,5.77,0,0,1,274.57,88Z" fill="#fff"/>
        <path d="M303.85,82.58a12.85,12.85,0,0,1-1,5,13,13,0,0,1-2.73,4.12,12.8,12.8,0,0,1-9.18,3.79,12.55,12.55,0,0,1-5.07-1,13,13,0,0,1,0-23.87,12.55,12.55,0,0,1,5.07-1,12.81,12.81,0,0,1,9.18,3.79,13,13,0,0,1,2.73,4.12A12.84,12.84,0,0,1,303.85,82.58Zm-6.94,5.88a12.8,12.8,0,0,0-.92-4.83,16.19,16.19,0,0,0-2.52-4.23,18,18,0,0,0-3.7-3.4,19.92,19.92,0,0,0-4.51-2.34,13.9,13.9,0,0,0-.37,3.1,12.77,12.77,0,0,0,.93,4.83,16.13,16.13,0,0,0,2.5,4.21,17.59,17.59,0,0,0,3.7,3.38,20.3,20.3,0,0,0,4.53,2.34A13.7,13.7,0,0,0,296.91,88.46Z" fill="#fff"/>
        <path d="M306,94.93l3.89-5.13V63.52l-3-3,12.26-7.31V89.8l3.93,5.13Z" fill="#fff"/>
        <path d="M346,96.18l-2.73-4.58-7.5,4.53a10.83,10.83,0,0,1-3.72-1.5,12.16,12.16,0,0,1-2.89-2.57,11.46,11.46,0,0,1-1.87-3.31,10.86,10.86,0,0,1-.67-3.77V79.25l-3-3L335.86,69V83.92a5.13,5.13,0,0,0,.49,2.2,5.5,5.5,0,0,0,1.34,1.8,6.41,6.41,0,0,0,2,1.2,7,7,0,0,0,2.5.44h.09V79.25l-3-3L351.59,69V88.32l2.82,2.82Z" fill="#fff"/>
        <path d="M370.75,75.69v12.4l3,2.91-8.6,5.14a26.74,26.74,0,0,1-1.6-2.5,17.46,17.46,0,0,1-1.13-2.45,14.47,14.47,0,0,1-.69-2.61,18.19,18.19,0,0,1-.23-3V75.69h-5.13V71.34h5.13V68.1l-3-3,12.26-7.26V71.34h5.14v4.35Z" fill="#fff"/>
        <path d="M394.43,94.93H377.32l3.89-5.13V79.16l-3-3,12.26-7.26V89.8ZM390.5,65h-9.3V57.92h9.3Z" fill="#fff"/>
        <path d="M422.33,82.58a12.85,12.85,0,0,1-1,5,13,13,0,0,1-2.73,4.12,12.8,12.8,0,0,1-9.18,3.79,12.55,12.55,0,0,1-5.07-1,13,13,0,0,1,0-23.87,12.55,12.55,0,0,1,5.07-1,12.81,12.81,0,0,1,9.18,3.79,13,13,0,0,1,2.73,4.12A12.84,12.84,0,0,1,422.33,82.58Zm-6.94,5.88a12.8,12.8,0,0,0-.92-4.83,16.19,16.19,0,0,0-2.52-4.23,18,18,0,0,0-3.7-3.4,19.92,19.92,0,0,0-4.51-2.34,13.9,13.9,0,0,0-.37,3.1,12.77,12.77,0,0,0,.93,4.83,16.13,16.13,0,0,0,2.5,4.21,17.59,17.59,0,0,0,3.7,3.38A20.3,20.3,0,0,0,415,91.51,13.7,13.7,0,0,0,415.39,88.46Z" fill="#fff"/>
        <path d="M444,94.93V81.28a5.13,5.13,0,0,0-.49-2.2,5.53,5.53,0,0,0-1.34-1.8,6.79,6.79,0,0,0-2-1.23,6.66,6.66,0,0,0-2.5-.46h0V89.8l3.93,5.13H424.46l3.89-5.13V76.89l-2.82-2.82L434,69l2.73,4.53,7.5-4.49a10.84,10.84,0,0,1,3.72,1.5,12.2,12.2,0,0,1,2.89,2.57,11.57,11.57,0,0,1,1.87,3.29,10.68,10.68,0,0,1,.67,3.75V89.8l3.93,5.13Z" fill="#fff"/>
      </g>
    </g>
  </g>
</svg>
