<svg xmlns="http://www.w3.org/2000/svg" width="566.16" height="63.8" viewBox="0 0 566.16 63.8">
  <title>tama_black</title>
  <g id="Layer_2" data-name="Layer 2">
    <g id="Layer_1-2" data-name="Layer 1">
      <g>
        <path d="M31.9,8.81V54.62l6.29,8.21H10.8L17,54.62V8.81L0,18.06V3.63H49V18Z" fill="#666"/>
        <path d="M114.19,62.83H85.92l6.29-8.21L88.44,46.7H67.87l-3.77,7.92,6.14,8.21H49.81l6.29-8.21L82,.15l25.9,54.4ZM85,39.52,78.15,25.09,71.27,39.52Z" fill="#666"/>
        <path d="M156,62.83l6.22-8.21V23.39l-17,27L127.74,23v31.6L134,62.83H114.27l6.22-8.21V13.1l-4.66-4.66L130,0l19.83,31.45,12.36-19.69L156,3.63h27.38l-6.29,8.22V54.62l6.29,8.21Z" fill="#666"/>
        <path d="M247.85,62.83H219.58l6.29-8.21L222.1,46.7H201.52l-3.77,7.92,6.14,8.21H183.46l6.29-8.21L215.66.15l25.9,54.4ZM218.69,39.52l-6.88-14.43-6.88,14.43Z" fill="#666"/>
        <path d="M293,61.24a39.32,39.32,0,0,1-13.91,2.55,29.18,29.18,0,0,1-11.84-2.37A27.93,27.93,0,0,1,258,54.91a29.55,29.55,0,0,1-6-9.73,33.24,33.24,0,0,1-2.14-12,32.75,32.75,0,0,1,2-11.43A30.75,30.75,0,0,1,257.55,12a27.86,27.86,0,0,1,8.88-6.73A25.89,25.89,0,0,1,277.9,2.74,25.12,25.12,0,0,1,290,5.7a33.15,33.15,0,0,1,9.77,8.14L286.19,22a37.12,37.12,0,0,0-6.14-5,41,41,0,0,0-5.85-3.18,30.23,30.23,0,0,0-4.92-1.7,15.91,15.91,0,0,0-3.44-.52,36.26,36.26,0,0,0-2.52,13.17,39.23,39.23,0,0,0,1.37,10.21,36.55,36.55,0,0,0,4,9.51,33.13,33.13,0,0,0,6.55,7.81,28.08,28.08,0,0,0,8.92,5.25V34.12h14.88V50.4l6.36,3.77A44.89,44.89,0,0,1,293,61.24Z" fill="#666"/>
        <path d="M367.23,33.16A32.2,32.2,0,0,1,365,45.33a30.64,30.64,0,0,1-6.14,9.7,28.18,28.18,0,0,1-9.14,6.44,27.45,27.45,0,0,1-11.25,2.33,29.28,29.28,0,0,1-11.29-2.18A27.52,27.52,0,0,1,318,55.51a28.75,28.75,0,0,1-6.14-9.4A31.37,31.37,0,0,1,309.57,34a33.36,33.36,0,0,1,2.26-12.32,31.63,31.63,0,0,1,6.14-10,28.79,28.79,0,0,1,9.14-6.66,26.53,26.53,0,0,1,11.32-2.44,28,28,0,0,1,20.39,8.66A30.2,30.2,0,0,1,365,21,32.22,32.22,0,0,1,367.23,33.16Zm-13.62,9.33a35.19,35.19,0,0,0-1.89-11.4,31,31,0,0,0-5.48-9.88,27.59,27.59,0,0,0-8.81-7,25.59,25.59,0,0,0-11.8-2.67,32.53,32.53,0,0,0-2.52,12.73A35.51,35.51,0,0,0,325,35.71a31.24,31.24,0,0,0,5.48,10,27.47,27.47,0,0,0,8.77,7,25.52,25.52,0,0,0,11.84,2.66A34.4,34.4,0,0,0,353.61,42.48Z" fill="#666"/>
        <path d="M404,8.81V54.62l6.29,8.21H382.91l6.22-8.21V8.81l-17,9.25V3.63h49V18Z" fill="#666"/>
        <path d="M462.25,22a39,39,0,0,0-6.07-5,38.13,38.13,0,0,0-5.77-3.18,30.23,30.23,0,0,0-4.92-1.7,15.91,15.91,0,0,0-3.44-.52,32.72,32.72,0,0,0-2.52,12.36,29,29,0,0,0,2.52,12,30,30,0,0,0,7.07,9.84A34.1,34.1,0,0,0,460,52.43,38.72,38.72,0,0,0,473.87,55a39.77,39.77,0,0,1-10.21,6.73,24.72,24.72,0,0,1-9.7,2,25.73,25.73,0,0,1-11-2.37,27.58,27.58,0,0,1-8.88-6.51,31.2,31.2,0,0,1-6-9.7,32.46,32.46,0,0,1-2.18-12,32.45,32.45,0,0,1,2.18-12,30.33,30.33,0,0,1,6-9.66,27.81,27.81,0,0,1,8.92-6.44,26.22,26.22,0,0,1,11-2.33A25.78,25.78,0,0,1,466,5.55a31.8,31.8,0,0,1,10,8.29Z" fill="#666"/>
        <path d="M509.1,62.83l6.22-8.21V35.38H499.4V54.62l6.29,8.21H478.31l6.22-8.21V11.84l-6.22-8.22h27.38l-6.29,8.22V28.27h15.91V11.84L509.1,3.63h27.38l-6.29,8.22V54.62l6.29,8.21Z" fill="#666"/>
        <path d="M538.77,62.83,545,54.62V11.84l-6.22-8.22h27.38l-6.29,8.22V54.62l6.29,8.21Z" fill="#666"/>
      </g>
    </g>
  </g>
</svg>
