<svg xmlns="http://www.w3.org/2000/svg" width="777.44" height="87.6" viewBox="0 0 777.44 87.6">
  <title>tamagotttchu</title>
  <g id="Layer_2" data-name="Layer 2">
    <g id="Layer_1-2" data-name="Layer 1">
      <g>
        <path d="M43.8,12.09V75l8.64,11.28H14.84L23.37,75V12.09L0,24.8V5H67.28V24.7Z" fill="#fff"/>
        <path d="M156.81,86.28H118L126.63,75l-5.18-10.87H93.19L88,75l8.44,11.28h-28L77,75,112.6.2l35.57,74.7Zm-40-32-9.45-19.82L97.87,54.27Z" fill="#fff"/>
        <path d="M214.23,86.28,222.77,75V32.11L199.39,69.21l-24-37.6V75L184,86.28H156.91L165.45,75V18l-6.4-6.4L178.46,0l27.24,43.19,17-27L214.23,5h37.6l-8.64,11.28V75l8.64,11.28Z" fill="#fff"/>
        <path d="M340.35,86.28H301.53L310.17,75,305,64.13H276.73L271.55,75,280,86.28h-28L260.57,75,296.14.2l35.57,74.7Zm-40-32-9.45-19.82L281.4,54.27Z" fill="#fff"/>
        <path d="M402.34,84.1a54,54,0,0,1-19.11,3.51A40.07,40.07,0,0,1,367,84.35a38.35,38.35,0,0,1-12.76-8.94A40.57,40.57,0,0,1,345.94,62,45.65,45.65,0,0,1,343,45.53a45,45,0,0,1,2.79-15.7,42.23,42.23,0,0,1,7.88-13.36,38.26,38.26,0,0,1,12.2-9.25,35.56,35.56,0,0,1,15.75-3.46,34.5,34.5,0,0,1,16.67,4.07A45.52,45.52,0,0,1,411.69,19L393,30.18a51,51,0,0,0-8.44-6.91,56.34,56.34,0,0,0-8-4.37,41.5,41.5,0,0,0-6.76-2.34,21.85,21.85,0,0,0-4.72-.71,49.79,49.79,0,0,0-3.46,18.09,53.88,53.88,0,0,0,1.88,14A50.18,50.18,0,0,0,369,61a45.5,45.5,0,0,0,9,10.72A38.56,38.56,0,0,0,390.25,79V46.85h20.43V69.21l8.74,5.18A61.64,61.64,0,0,1,402.34,84.1Z" fill="#fff"/>
        <path d="M504.27,45.53a44.22,44.22,0,0,1-3.1,16.72,42.07,42.07,0,0,1-8.44,13.31,38.69,38.69,0,0,1-12.55,8.84,37.7,37.7,0,0,1-15.45,3.2,40.21,40.21,0,0,1-15.5-3,37.8,37.8,0,0,1-12.6-8.38,39.47,39.47,0,0,1-8.44-12.91,43.08,43.08,0,0,1-3.1-16.57,45.8,45.8,0,0,1,3.1-16.92,43.43,43.43,0,0,1,8.44-13.67A39.54,39.54,0,0,1,449.19,7a36.44,36.44,0,0,1,15.55-3.35,38.4,38.4,0,0,1,28,11.89,41.47,41.47,0,0,1,8.44,13.26A44.24,44.24,0,0,1,504.27,45.53Zm-18.7,12.81A48.32,48.32,0,0,0,483,42.68a42.49,42.49,0,0,0-7.52-13.57,37.88,37.88,0,0,0-12.09-9.6,35.14,35.14,0,0,0-16.21-3.66,44.67,44.67,0,0,0-3.46,17.48A48.77,48.77,0,0,0,446.29,49a42.9,42.9,0,0,0,7.52,13.67,37.72,37.72,0,0,0,12,9.66A35,35,0,0,0,482.12,76,47.24,47.24,0,0,0,485.57,58.33Z" fill="#fff"/>
        <path d="M554.78,12.09V75l8.64,11.28h-37.6L534.35,75V12.09L511,24.8V5h67.28V24.7Z" fill="#fff"/>
        <path d="M634.76,30.18a53.53,53.53,0,0,0-8.33-6.91,52.36,52.36,0,0,0-7.93-4.37,41.5,41.5,0,0,0-6.76-2.34,21.85,21.85,0,0,0-4.72-.71,44.93,44.93,0,0,0-3.46,17A39.81,39.81,0,0,0,607,49.29a41.12,41.12,0,0,0,9.71,13.52A46.83,46.83,0,0,0,631.66,72a53.17,53.17,0,0,0,19.05,3.51,54.61,54.61,0,0,1-14,9.25,34,34,0,0,1-13.31,2.74,35.34,35.34,0,0,1-15-3.25,37.87,37.87,0,0,1-12.19-8.94A42.84,42.84,0,0,1,588,62a44.57,44.57,0,0,1-3-16.46,44.57,44.57,0,0,1,3-16.46,41.65,41.65,0,0,1,8.23-13.26A38.19,38.19,0,0,1,608.44,7a36,36,0,0,1,15.14-3.2,35.39,35.39,0,0,1,16.31,3.86A43.67,43.67,0,0,1,653.66,19Z" fill="#fff"/>
        <path d="M699.09,86.28,707.62,75V48.58H685.78V75l8.64,11.28h-37.6L665.35,75V16.26L656.81,5h37.6l-8.64,11.28V38.82h21.85V16.26L699.09,5h37.6l-8.64,11.28V75l8.64,11.28Z" fill="#fff"/>
        <path d="M739.84,86.28,748.38,75V16.26L739.84,5h37.6l-8.64,11.28V75l8.64,11.28Z" fill="#fff"/>
      </g>
    </g>
  </g>
</svg>
