<svg xmlns="http://www.w3.org/2000/svg" width="1081.23" height="121.83" viewBox="0 0 1081.23 121.83">
  <title>tamagotchu_2</title>
  <g id="Layer_2" data-name="Layer 2">
    <g id="Layer_1-2" data-name="Layer 1">
      <g>
        <path d="M60.92,16.82v87.49l12,15.69H20.63l11.87-15.69V16.82L0,34.49V6.92H93.57V34.35Z" fill="#fff"/>
        <path d="M218.09,120h-54l12-15.69L168.9,89.19H129.61l-7.21,15.12L134.13,120h-39l12-15.69L156.6.28l49.47,103.88ZM162.4,75.47,149.25,47.92,136.11,75.47Z" fill="#fff"/>
        <path d="M297.94,120l11.87-15.69V44.66L277.3,96.25,243.95,44v60.35L256,120H218.22l11.87-15.69V25l-8.91-8.9L248.19,0l37.88,60.07,23.61-37.6L297.94,6.92h52.3l-12,15.69v81.69l12,15.69Z" fill="#fff"/>
        <path d="M473.34,120h-54l12-15.69-7.21-15.12H384.86l-7.21,15.12L389.38,120h-39l12-15.69L411.86.28l49.47,103.88ZM417.65,75.47,404.51,47.92,391.36,75.47Z" fill="#fff"/>
        <path d="M559.56,117A75.09,75.09,0,0,1,533,121.83a55.73,55.73,0,0,1-22.61-4.52,53.34,53.34,0,0,1-17.74-12.44,56.42,56.42,0,0,1-11.52-18.59,63.49,63.49,0,0,1-4.1-23,62.54,62.54,0,0,1,3.88-21.84,58.73,58.73,0,0,1,11-18.58,53.21,53.21,0,0,1,17-12.86,49.45,49.45,0,0,1,21.9-4.81,48,48,0,0,1,23.18,5.65,63.31,63.31,0,0,1,18.66,15.55L546.55,42a70.89,70.89,0,0,0-11.73-9.61,78.35,78.35,0,0,0-11.16-6.08,57.72,57.72,0,0,0-9.4-3.25,30.38,30.38,0,0,0-6.57-1,69.24,69.24,0,0,0-4.81,25.16,74.93,74.93,0,0,0,2.61,19.5,69.79,69.79,0,0,0,7.7,18.16,63.28,63.28,0,0,0,12.51,14.91,53.63,53.63,0,0,0,17,10V65.16h28.41V96.25l12.15,7.21A85.72,85.72,0,0,1,559.56,117Z" fill="#fff"/>
        <path d="M701.32,63.32A61.5,61.5,0,0,1,697,86.57a58.51,58.51,0,0,1-11.73,18.52,53.81,53.81,0,0,1-17.45,12.3,52.43,52.43,0,0,1-21.48,4.45,55.92,55.92,0,0,1-21.55-4.17A52.57,52.57,0,0,1,607.26,106a54.9,54.9,0,0,1-11.73-17.95,59.91,59.91,0,0,1-4.31-23,63.7,63.7,0,0,1,4.31-23.53,60.41,60.41,0,0,1,11.73-19A55,55,0,0,1,624.71,9.75a50.67,50.67,0,0,1,21.62-4.66,53.41,53.41,0,0,1,38.94,16.53A57.68,57.68,0,0,1,697,40.07,61.53,61.53,0,0,1,701.32,63.32Zm-26,17.81a67.21,67.21,0,0,0-3.6-21.76A59.1,59.1,0,0,0,661.25,40.5a52.69,52.69,0,0,0-16.82-13.36A48.87,48.87,0,0,0,621.89,22a62.13,62.13,0,0,0-4.81,24.31,67.82,67.82,0,0,0,3.6,21.84,59.67,59.67,0,0,0,10.46,19,52.46,52.46,0,0,0,16.75,13.43,48.74,48.74,0,0,0,22.62,5.09A65.7,65.7,0,0,0,675.31,81.13Z" fill="#fff"/>
        <path d="M771.56,16.82v87.49l12,15.69h-52.3l11.87-15.69V16.82L710.64,34.49V6.92h93.57V34.35Z" fill="#fff"/>
        <path d="M882.79,42a74.45,74.45,0,0,0-11.59-9.61,72.83,72.83,0,0,0-11-6.08,57.72,57.72,0,0,0-9.4-3.25,30.38,30.38,0,0,0-6.57-1,62.48,62.48,0,0,0-4.81,23.61,55.36,55.36,0,0,0,4.81,22.9,57.19,57.19,0,0,0,13.5,18.8,65.13,65.13,0,0,0,20.78,12.79A74,74,0,0,0,905,105q-10.46,9-19.5,12.86A47.22,47.22,0,0,1,867,121.69,49.15,49.15,0,0,1,846,117.17a52.67,52.67,0,0,1-17-12.44,59.58,59.58,0,0,1-11.38-18.52,62,62,0,0,1-4.17-22.9,62,62,0,0,1,4.17-22.9A57.93,57.93,0,0,1,829.15,22a53.11,53.11,0,0,1,17-12.3,50.08,50.08,0,0,1,21.06-4.45,49.23,49.23,0,0,1,22.69,5.37,60.74,60.74,0,0,1,19.15,15.83Z" fill="#fff"/>
        <path d="M972.26,120l11.87-15.69V67.56H953.74v36.75l12,15.69h-52.3l11.87-15.69V22.62L913.46,6.92h52.3l-12,15.69V54h30.39V22.62L972.26,6.92h52.3l-12,15.69v81.69l12,15.69Z" fill="#fff"/>
        <path d="M1028.93,120l11.87-15.69V22.62L1028.93,6.92h52.3l-12,15.69v81.69l12,15.69Z" fill="#fff"/>
      </g>
    </g>
  </g>
</svg>
