<svg xmlns="http://www.w3.org/2000/svg" xmlns:xlink="http://www.w3.org/1999/xlink" width="142" height="50" viewBox="0 0 142 50">
  <defs>
    <clipPath id="clip-path">
      <rect width="142" height="50" fill="none"/>
    </clipPath>
  </defs>
  <title>yes_button</title>
  <g id="Layer_2" data-name="Layer 2">
    <g id="Layer_1-2" data-name="Layer 1">
      <g clip-path="url(#clip-path)">
        <path d="M68.56,21.6h8.08a4,4,0,0,0-1.1-3,3.91,3.91,0,0,0-2.86-1.08,4.27,4.27,0,0,0-3,1,3.82,3.82,0,0,0-1.16,3M92,19.2a1.2,1.2,0,0,0,.32.86,2.92,2.92,0,0,0,.94.62,12.77,12.77,0,0,0,1.54.56l2.12.68q1.28.36,2.4.78a8,8,0,0,1,2,1,4.67,4.67,0,0,1,1.34,1.54,4.83,4.83,0,0,1,.5,2.32,5.73,5.73,0,0,1-.68,2.9,5.4,5.4,0,0,1-1.88,1.92,8.42,8.42,0,0,1-2.78,1.06,17,17,0,0,1-3.38.32A10.54,10.54,0,0,1,87.9,32a6.08,6.08,0,0,1-2.38-5.16h6A2.57,2.57,0,0,0,92.38,29a3.54,3.54,0,0,0,2.22.66,3.5,3.5,0,0,0,1.82-.42,1.48,1.48,0,0,0,.7-1.38,1.31,1.31,0,0,0-.3-.9,2.92,2.92,0,0,0-.92-.64,11.5,11.5,0,0,0-1.6-.6L92,25q-1.2-.36-2.28-.78a8.27,8.27,0,0,1-1.9-1,4.34,4.34,0,0,1-1.3-1.52A5,5,0,0,1,86,19.36a4.87,4.87,0,0,1,2.3-4.44,11.64,11.64,0,0,1,6.22-1.44,12.16,12.16,0,0,1,3.66.5,7.32,7.32,0,0,1,2.6,1.38,5.73,5.73,0,0,1,1.54,2.08,6.38,6.38,0,0,1,.52,2.56h-6a2.61,2.61,0,0,0-.62-1.86,2.49,2.49,0,0,0-1.9-.66,3,3,0,0,0-1.6.42A1.42,1.42,0,0,0,92,19.2m-9.36,3.08q0,.6,0,1.28a10.74,10.74,0,0,1-.18,1.56H68.56a7.26,7.26,0,0,0,.26,1.66,3.38,3.38,0,0,0,2,2.28,5.12,5.12,0,0,0,2,.34,3.88,3.88,0,0,0,2.42-.64A3.35,3.35,0,0,0,76.4,27.2h6a6.7,6.7,0,0,1-.94,2.56,7.51,7.51,0,0,1-2,2.1,9.68,9.68,0,0,1-2.88,1.42,13.76,13.76,0,0,1-8.2-.22A8.86,8.86,0,0,1,65.16,31a9,9,0,0,1-2-3.22,11.84,11.84,0,0,1-.68-4.1,11.65,11.65,0,0,1,.66-4,9.14,9.14,0,0,1,2-3.22,9.27,9.27,0,0,1,3.2-2.18,11.32,11.32,0,0,1,4.42-.8,11.07,11.07,0,0,1,4.1.72,9.94,9.94,0,0,1,3.12,1.92,8.34,8.34,0,0,1,2.7,6.16m-24,11.48a10,10,0,0,1-.72,4,7.15,7.15,0,0,1-2,2.72,8.08,8.08,0,0,1-3,1.58,15.64,15.64,0,0,1-4.26.5,15.52,15.52,0,0,1-4.1-.48,8.18,8.18,0,0,1-3-1.52,7.63,7.63,0,0,1-1.9-2.38,7.23,7.23,0,0,1-.74-3.38H45a3.25,3.25,0,0,0,1.14,2.5,4,4,0,0,0,2.58.86,4.1,4.1,0,0,0,2.76-.86,4,4,0,0,0,1-3.1v-4a5.51,5.51,0,0,1-2.38,2.4,8,8,0,0,1-3.78.84A8.06,8.06,0,0,1,43,32.8a5.9,5.9,0,0,1-3.42-4.18,17.88,17.88,0,0,1-.28-3.46V14h6.08v9.88a6.79,6.79,0,0,0,.74,3.38,2.8,2.8,0,0,0,2.66,1.3,3.17,3.17,0,0,0,2.82-1.32,6.23,6.23,0,0,0,.9-3.56V14H58.6ZM142,38V12s0-12-12-12H12S0,0,0,12V38S0,50,12,50H130s12,0,12-12" fill="#fff"/>
      </g>
    </g>
  </g>
</svg>
